<svg xmlns="http://www.w3.org/2000/svg" width="120" height="120" viewBox="0 0 120 120" fill="none">
  <g clip-path="url(#clip0_786_656)">
    <path d="M59.9675 113.015C42.1172 113.015 24.2669 113.015 6.41666 113.015C5.87219 113.015 5.32772 112.987 4.79263 113.151C3.92429 113.419 3.47839 114.015 3.5441 114.888C3.60981 115.771 4.17306 116.301 5.0414 116.437C5.46384 116.503 5.90035 116.47 6.32748 116.47C34.4101 116.47 62.4927 116.47 90.5753 116.47C92.4857 116.47 93.3118 117.015 93.293 118.258C93.2742 119.46 92.4716 119.981 90.6316 119.981C62.3519 119.981 34.0721 119.981 5.79709 119.991C3.49247 119.991 1.6713 119.183 0.587047 117.09C-0.975967 114.057 0.746633 110.438 4.11204 109.706C4.76447 109.565 4.92875 109.34 4.92406 108.729C4.90998 102.087 4.90998 95.4452 4.92406 88.803C4.92406 88.2491 4.78324 88.0003 4.18714 87.8642C1.53518 87.2586 -0.196807 84.9679 0.0191048 82.4425C0.244404 79.7903 2.2674 77.7859 5.02262 77.5982C6.38381 77.5043 7.75438 77.5372 9.12025 77.5794C10.3312 77.617 11.0353 78.3117 11.0353 79.3491C11.0353 80.3912 10.3172 81.0483 9.10148 81.0765C7.92805 81.1 6.75931 81.0671 5.58587 81.0859C4.31387 81.1094 3.50185 81.8135 3.51594 82.8321C3.53471 83.8085 4.29979 84.5361 5.51547 84.5408C10.9461 84.5689 16.3721 84.5548 21.8027 84.5501C22.1078 84.5501 22.4927 84.5971 22.5021 84.1418C22.5256 83.2452 22.5256 82.3439 22.4974 81.4473C22.4786 80.9779 22.0703 81.0859 21.7793 81.0812C20.4509 81.0718 19.1226 81.0953 17.7943 81.0718C16.5739 81.0483 15.8417 80.3959 15.8182 79.3726C15.7994 78.3727 16.5457 77.6264 17.7239 77.5794C18.8926 77.5325 20.0707 77.6123 21.2395 77.5419C21.676 77.5137 22.5021 77.9925 22.488 77.0396C22.4786 76.312 22.9996 75.3497 21.6572 75.0023C19.9158 74.5564 18.7847 73.3406 18.2543 71.6085C17.2404 68.2992 19.6061 64.957 23.0747 64.9053C26.8626 64.849 30.6504 64.849 34.4383 64.9053C35.438 64.9194 35.6633 64.6143 35.6445 63.6614C35.5835 60.6947 35.6023 57.7234 35.6352 54.7567C35.6398 54.1136 35.4709 53.8226 34.8184 53.6066C32.6406 52.879 31.2888 50.9685 31.2606 48.7435C31.2324 46.5185 32.6171 44.5329 34.8513 43.7913C35.5272 43.566 35.7478 43.1998 35.8276 42.5567C37.2169 31.3707 45.3042 22.926 56.3439 21.1188C57.6206 20.9091 58.2589 20.1393 58.2589 18.8093C58.2589 13.4955 58.2589 8.18182 58.2589 2.8681C58.2589 2.44093 58.2683 2.00908 58.3059 1.58191C58.4091 0.558598 59.0475 0 60.0097 0C60.9719 0 61.6901 0.582069 61.6713 1.60069C61.6478 2.73197 62.2205 2.79768 63.1123 2.7836C66.1585 2.74135 69.2047 2.75544 72.251 2.76952C75.1986 2.7836 77.0949 4.65655 77.1137 7.58097C77.1278 9.45392 77.1278 11.3316 77.1137 13.2045C77.0902 16.0491 75.1893 17.9737 72.3308 17.9972C69.2047 18.0253 66.0787 18.0394 62.9574 17.9831C61.9999 17.9643 61.6666 18.2037 61.7135 19.2036C61.7886 20.8512 61.7229 20.8747 63.3376 21.1094C66.9377 21.6304 70.2608 22.879 73.3211 24.8459C74.5509 25.6392 74.9358 26.5733 74.3538 27.5403C73.7858 28.4838 72.7673 28.6246 71.4906 27.8219C68.7494 26.0945 65.8206 24.9538 62.5819 24.5455C57.7802 23.9399 53.3305 24.9538 49.2517 27.4323C43.5863 30.8731 40.2679 35.924 39.3479 42.5332C39.2352 43.35 39.4371 43.5284 40.2162 43.5284C53.4197 43.5096 66.6185 43.5096 79.822 43.5284C80.634 43.5284 80.7748 43.2984 80.6715 42.5145C80.343 39.9703 79.5591 37.5857 78.3528 35.3325C78.0196 34.7129 77.6253 34.1308 77.3202 33.5018C76.8227 32.4832 77.0949 31.5444 77.9632 31.0796C78.8081 30.629 79.7234 30.859 80.2913 31.7556C81.5493 33.7318 82.61 35.8066 83.2672 38.0739C83.7037 39.576 84.0839 41.0781 84.1777 42.6459C84.2153 43.2655 84.5016 43.5753 85.1165 43.7819C87.3789 44.5517 88.7448 46.4575 88.7448 48.706C88.7448 50.9639 87.4023 52.8415 85.1118 53.6254C84.4875 53.8366 84.3702 54.1418 84.3749 54.7191C84.3937 57.8032 84.4077 60.8919 84.3702 63.9759C84.3608 64.6988 84.572 64.9053 85.2949 64.8959C89.0029 64.8631 92.7157 64.8725 96.4284 64.8819C99.3056 64.8913 101.469 66.5717 101.939 69.1347C102.418 71.7493 100.939 74.1715 98.1745 75.0821C96.9869 75.4718 97.6065 76.3402 97.5126 76.9973C97.4 77.8 98.0947 77.5512 98.4936 77.5512C103.807 77.5653 109.116 77.5512 114.429 77.5653C117.189 77.5747 119.184 79.0768 119.817 81.5459C120.531 84.3248 118.836 87.2305 116.034 87.8219C115.194 88.0003 115.081 88.3383 115.086 89.0565C115.105 95.5437 115.105 102.026 115.086 108.514C115.086 109.232 115.189 109.56 116.039 109.729C118.461 110.217 120.193 112.673 120 115.095C119.794 117.737 117.691 119.901 115.016 119.948C110.017 120.033 105.018 119.991 100.019 119.972C98.8363 119.972 98.0665 119.216 98.0712 118.216C98.0806 117.174 98.8738 116.484 100.16 116.479C104.769 116.465 109.378 116.479 113.988 116.47C114.377 116.47 114.781 116.503 115.152 116.404C115.945 116.198 116.452 115.663 116.48 114.822C116.503 113.996 116.081 113.428 115.274 113.161C114.739 112.987 114.194 113.01 113.65 113.01C95.7619 113.01 77.8694 113.01 59.9815 113.01L59.9675 113.015ZM59.8736 109.527C70.81 109.527 81.7417 109.513 92.6781 109.551C93.6826 109.551 93.997 109.326 93.9923 108.265C93.9501 97.7171 93.9501 87.1741 93.9923 76.6265C93.9923 75.5609 93.7248 75.2558 92.6405 75.2605C70.8898 75.2934 49.1343 75.2934 27.3836 75.2605C26.3322 75.2605 26.0083 75.5093 26.013 76.6077C26.0552 87.1131 26.0552 97.6232 26.013 108.129C26.0083 109.255 26.2899 109.56 27.4258 109.556C38.2449 109.513 49.0592 109.527 59.8783 109.527H59.8736ZM60.1224 53.8977C53.523 53.8977 46.9236 53.9211 40.3242 53.8742C39.3291 53.8695 39.0944 54.1605 39.1132 55.1134C39.1742 58.0426 39.1601 60.9717 39.1226 63.9008C39.1132 64.6425 39.2869 64.9053 40.0848 64.9006C53.3587 64.8772 66.6373 64.8772 79.9111 64.9006C80.695 64.9006 80.8921 64.6565 80.8781 63.9055C80.8405 61.0139 80.817 58.1224 80.8874 55.2355C80.9109 54.2028 80.6809 53.8554 79.5685 53.8648C73.0865 53.9258 66.6044 53.893 60.1224 53.893V53.8977ZM60.0848 68.3978C48.1299 68.3978 36.1796 68.3978 24.2247 68.3978C23.8351 68.3978 23.4408 68.3696 23.0559 68.4212C22.1735 68.5339 21.6291 69.0455 21.5633 69.9421C21.4929 70.8903 21.9482 71.5193 22.8964 71.7071C23.3141 71.7916 23.7506 71.7963 24.1777 71.7963C48.0454 71.7963 71.9083 71.7963 95.776 71.7963C96.2406 71.7963 96.7194 71.7963 97.1747 71.693C98.0571 71.4958 98.4936 70.8903 98.4467 69.9937C98.3998 69.0925 97.8741 68.5667 97.001 68.4259C96.5833 68.3602 96.1421 68.3978 95.7149 68.3978C83.8398 68.3978 71.9647 68.3978 60.0895 68.3978H60.0848ZM8.43027 98.7733C8.43027 102.017 8.45844 105.256 8.4115 108.499C8.40211 109.321 8.64619 109.551 9.4582 109.546C13.4807 109.509 17.5033 109.513 21.5211 109.546C22.2439 109.551 22.5443 109.396 22.5396 108.589C22.5068 102.069 22.5115 95.5437 22.5396 89.0236C22.5396 88.2444 22.2956 88.0426 21.5446 88.0473C17.522 88.0801 13.4995 88.0942 9.48167 88.0379C8.55701 88.0238 8.39742 88.3477 8.4115 89.1738C8.45374 92.3752 8.43027 95.5766 8.43027 98.7827V98.7733ZM97.4751 98.7216C97.4751 101.965 97.4939 105.204 97.461 108.448C97.4516 109.204 97.5737 109.56 98.4608 109.551C102.521 109.504 106.581 109.518 110.641 109.542C111.326 109.542 111.589 109.387 111.589 108.636C111.561 102.073 111.561 95.5156 111.589 88.9532C111.589 88.2115 111.354 88.0379 110.655 88.0426C106.595 88.0707 102.535 88.0801 98.4749 88.0379C97.6112 88.0285 97.4563 88.343 97.4657 89.1175C97.5033 92.3189 97.4798 95.5203 97.4798 98.7263L97.4751 98.7216ZM60.0003 50.3912C67.4962 50.3912 74.9921 50.3912 82.4833 50.3912C82.8729 50.3912 83.2672 50.4006 83.6521 50.3724C84.633 50.2973 85.1634 49.6683 85.1916 48.767C85.2244 47.8704 84.7457 47.1992 83.7647 47.0677C83.3423 47.0114 82.9104 47.0114 82.4786 47.0114C67.4868 47.0114 52.4997 47.0114 37.508 47.0114C37.0808 47.0114 36.649 47.0114 36.2219 47.0677C35.2456 47.1992 34.7668 47.8657 34.795 48.767C34.8278 49.6636 35.3535 50.2973 36.3345 50.3724C36.7241 50.4006 37.1137 50.3912 37.5033 50.3912C44.9992 50.3912 52.495 50.3912 59.9862 50.3912H60.0003ZM67.4962 6.28071C65.8957 6.28071 64.2951 6.32765 62.6992 6.26193C61.8919 6.22907 61.7135 6.53419 61.7229 7.26647C61.7605 9.37412 61.7605 11.4771 61.7229 13.5847C61.7088 14.2888 61.9248 14.5235 62.6523 14.5142C65.8112 14.4766 68.97 14.486 72.1289 14.5048C73.1569 14.5095 73.6356 14.0917 73.6122 13.0402C73.5793 11.2846 73.5746 9.52903 73.6122 7.77343C73.6403 6.65154 73.1334 6.23846 72.0538 6.27132C70.5331 6.31357 69.0123 6.28071 67.4915 6.28071H67.4962ZM106.37 81.0765H99.9393C97.4141 81.0765 97.4469 81.0765 97.4563 83.5832C97.4563 84.3624 97.6957 84.5736 98.4514 84.5689C102.075 84.5361 105.699 84.5548 109.327 84.5548C111.002 84.5548 112.678 84.5783 114.354 84.5454C115.71 84.522 116.527 83.7897 116.475 82.7335C116.428 81.7572 115.654 81.0953 114.434 81.0859C111.744 81.0671 109.055 81.0812 106.365 81.0765H106.37Z" fill="currentColor"/>
    <path d="M61.7368 92.8305C61.7368 96.5764 61.7368 100.322 61.7368 104.073C61.7368 104.538 61.7274 105.016 61.6429 105.472C61.4833 106.331 60.8356 106.739 60.047 106.753C59.2116 106.767 58.531 106.354 58.362 105.439C58.2775 104.984 58.2728 104.509 58.2728 104.04C58.2681 96.5483 58.2681 89.0518 58.2728 81.56C58.2728 79.6589 58.7516 78.9172 59.9672 78.889C61.2299 78.8609 61.7415 79.6307 61.7462 81.5929C61.7462 85.3387 61.7462 89.0846 61.7462 92.8352L61.7368 92.8305Z" fill="currentColor"/>
    <path d="M36.4235 92.915C36.4235 96.6234 36.4235 100.332 36.4235 104.04C36.4235 104.505 36.4188 104.984 36.3343 105.439C36.1653 106.35 35.4894 106.767 34.6493 106.753C33.8654 106.739 33.2177 106.331 33.0581 105.472C32.9736 105.016 32.9642 104.542 32.9642 104.073C32.9595 96.5811 32.9595 89.0846 32.9642 81.5929C32.9642 79.6354 33.4758 78.8609 34.7431 78.889C35.9588 78.9172 36.4329 79.6589 36.4329 81.56C36.4329 85.3481 36.4329 89.1316 36.4329 92.9197L36.4235 92.915Z" fill="currentColor"/>
    <path d="M41.3892 92.7977C41.3892 89.0518 41.3892 85.3059 41.3892 81.5553C41.3892 81.0906 41.3939 80.6118 41.4831 80.1565C41.6474 79.3069 42.2529 78.9079 43.079 78.8938C43.952 78.8797 44.5903 79.2787 44.764 80.1894C44.8438 80.6071 44.8532 81.0437 44.8532 81.4708C44.8579 89.0049 44.8579 96.5389 44.8532 104.068C44.8532 105.899 44.3228 106.739 43.1588 106.772C41.9572 106.805 41.3845 105.927 41.3845 104.035C41.3845 100.29 41.3845 96.5436 41.3845 92.793L41.3892 92.7977Z" fill="currentColor"/>
    <path d="M70.1713 92.793C70.1713 96.5389 70.1713 100.285 70.1713 104.035C70.1713 104.463 70.1572 104.894 70.1009 105.317C69.9694 106.298 69.2888 106.758 68.4017 106.749C67.5662 106.739 66.9091 106.289 66.7824 105.359C66.7214 104.937 66.7073 104.505 66.7073 104.078C66.7073 96.5858 66.7073 89.0894 66.7073 81.5976C66.7073 79.6307 67.2142 78.8656 68.4815 78.8891C69.6972 78.9125 70.1759 79.6589 70.1806 81.5553C70.1806 85.3012 70.1806 89.0471 70.1806 92.7977L70.1713 92.793Z" fill="currentColor"/>
    <path d="M78.6105 92.7931C78.6105 96.539 78.6105 100.285 78.6105 104.035C78.6105 104.463 78.5964 104.894 78.5401 105.317C78.4133 106.298 77.7327 106.763 76.8409 106.749C76.0054 106.739 75.3483 106.289 75.2216 105.364C75.1606 104.941 75.1465 104.51 75.1465 104.082C75.1465 96.5906 75.1465 89.0941 75.1465 81.6023C75.1465 79.6355 75.6534 78.8704 76.916 78.8938C78.1317 78.9173 78.6152 79.6637 78.6152 81.5554C78.6152 85.3013 78.6152 89.0472 78.6152 92.7978L78.6105 92.7931Z" fill="currentColor"/>
    <path d="M83.5765 92.7931C83.5765 89.0472 83.5765 85.3013 83.5765 81.5507C83.5765 81.086 83.5812 80.6072 83.6704 80.1519C83.8394 79.3022 84.4449 78.9032 85.271 78.8938C86.144 78.8845 86.7823 79.2788 86.9513 80.1941C87.0311 80.6119 87.0405 81.0484 87.0405 81.4756C87.0452 89.0096 87.0452 96.5437 87.0405 104.073C87.0405 105.904 86.5054 106.744 85.3414 106.772C84.1398 106.805 83.5718 105.927 83.5671 104.031C83.5671 100.285 83.5671 96.539 83.5671 92.7884L83.5765 92.7931Z" fill="currentColor"/>
    <path d="M49.8289 92.6663C49.8289 89.0753 49.8289 85.4843 49.8289 81.8933C49.8289 81.5788 49.8195 81.269 49.8289 80.9545C49.8852 79.5791 50.4485 78.8985 51.5327 78.8844C52.631 78.8656 53.2224 79.5416 53.2929 80.8982C53.3022 81.0906 53.2975 81.2878 53.2975 81.4849C53.2975 89.019 53.2975 96.553 53.2975 104.082C53.2975 105.908 52.7578 106.749 51.5937 106.772C50.3921 106.796 49.8289 105.927 49.8289 104.021C49.8289 100.233 49.8289 96.4497 49.8289 92.6616V92.6663Z" fill="currentColor"/>
    <path d="M65.9844 59.4978C65.9516 60.1174 65.9562 60.7464 65.8718 61.3566C65.745 62.2579 65.1208 62.7367 64.2712 62.7555C63.3653 62.7789 62.6894 62.2954 62.5674 61.3425C62.4078 60.0704 62.4172 58.7796 62.5674 57.5028C62.6706 56.578 63.3278 56.1368 64.1726 56.118C65.0691 56.0992 65.7591 56.5405 65.8811 57.5168C65.9609 58.1693 65.9562 58.8359 65.9891 59.4978H65.9844Z" fill="currentColor"/>
    <path d="M57.5451 59.4696C57.5123 60.0892 57.5217 60.7182 57.4372 61.3284C57.3011 62.2813 56.6486 62.7648 55.7427 62.7507C54.8885 62.7367 54.2501 62.2579 54.1328 61.3613C53.9685 60.0845 53.9826 58.7983 54.1234 57.5215C54.2313 56.5451 54.9213 56.0945 55.8225 56.1086C56.6674 56.1227 57.3198 56.5592 57.4372 57.484C57.517 58.1364 57.517 58.803 57.5498 59.4649L57.5451 59.4696Z" fill="currentColor"/>
    <path d="M45.5811 59.3615C45.6092 58.7419 45.6139 58.1552 45.6749 57.5778C45.7782 56.5967 46.4306 56.1226 47.3318 56.1179C48.233 56.1179 48.9042 56.5779 49.0075 57.559C49.1389 58.7983 49.1436 60.0469 49.0075 61.2814C48.8995 62.2296 48.2612 62.746 47.3553 62.7554C46.44 62.7648 45.811 62.2484 45.6843 61.3002C45.5998 60.6477 45.6139 59.9812 45.5811 59.3568V59.3615Z" fill="currentColor"/>
    <path d="M70.8987 59.3523C70.9269 58.7703 70.9269 58.1882 70.9832 57.6061C71.0724 56.625 71.7155 56.1322 72.6166 56.1181C73.5742 56.104 74.2782 56.611 74.3252 57.6437C74.3815 58.8454 74.3815 60.0517 74.3158 61.2534C74.2641 62.2157 73.5976 62.7368 72.6917 62.7555C71.7295 62.7696 71.0724 62.2298 70.9785 61.2159C70.9222 60.601 70.9691 59.9766 70.9691 59.3523C70.9457 59.3523 70.9175 59.3523 70.894 59.3523H70.8987Z" fill="currentColor"/>
    <path d="M15.4282 96.3043C14.7241 96.3043 14.0201 96.3371 13.3207 96.2949C12.2834 96.2338 11.5746 95.5438 11.5324 94.6191C11.4948 93.7507 12.2224 92.8776 13.2034 92.8306C14.7194 92.7555 16.2496 92.7555 17.7657 92.8306C18.7607 92.8776 19.4648 93.7319 19.4273 94.6191C19.3897 95.5391 18.681 96.2338 17.6483 96.2949C16.9114 96.3371 16.1651 96.3043 15.4235 96.3043H15.4282Z" fill="currentColor"/>
    <path d="M15.5363 104.744C14.7947 104.744 14.0531 104.777 13.3115 104.735C12.2789 104.674 11.5654 103.974 11.5326 103.054C11.4997 102.186 12.2272 101.322 13.2129 101.275C14.729 101.205 16.2592 101.2 17.7752 101.275C18.7703 101.327 19.4697 102.186 19.4321 103.068C19.3899 103.988 18.6811 104.679 17.6438 104.735C16.9444 104.777 16.2404 104.744 15.5363 104.744Z" fill="currentColor"/>
    <path d="M104.703 96.3043C103.999 96.3043 103.295 96.3371 102.596 96.2949C101.559 96.2338 100.85 95.5438 100.808 94.6191C100.77 93.7507 101.493 92.8776 102.479 92.8306C103.995 92.7555 105.525 92.7555 107.041 92.8306C108.031 92.8776 108.745 93.7413 108.712 94.6144C108.674 95.5391 107.97 96.2057 106.928 96.2996C106.848 96.3043 106.773 96.3043 106.693 96.3043C106.032 96.3043 105.365 96.3043 104.703 96.3043Z" fill="currentColor"/>
    <path d="M104.712 104.744C104.008 104.744 103.304 104.777 102.605 104.735C101.563 104.674 100.854 103.993 100.812 103.068C100.77 102.2 101.488 101.322 102.473 101.271C103.989 101.195 105.52 101.195 107.036 101.271C108.031 101.318 108.744 102.172 108.716 103.05C108.683 103.974 107.974 104.674 106.942 104.735C106.205 104.777 105.459 104.744 104.717 104.744H104.712Z" fill="currentColor"/>
  </g>
  <defs>
    <clipPath id="clip0_786_656">
      <rect width="120" height="120" fill="currentColor"/>
    </clipPath>
  </defs>
</svg>
