<svg xmlns="http://www.w3.org/2000/svg" width="118" height="99" viewBox="0 0 118 99" fill="none">
  <g clip-path="url(#clip0_795_2492)">
    <path d="M113.42 76.6982C114.439 76.6982 115.143 76.6888 115.842 76.6982C118.19 76.7451 119.903 78.4195 119.988 80.7364C120.204 86.81 114.809 92.8649 108.739 93.3292C107.65 93.4136 106.556 93.4558 105.462 93.4558C80.0335 93.4605 54.6053 93.4605 29.1772 93.4558C28.595 93.4558 27.994 93.4464 27.4353 93.3104C26.5527 93.0947 26.1724 92.4381 26.2428 91.5517C26.3038 90.7121 26.7827 90.1822 27.609 90.0462C28.1067 89.9617 28.6232 89.9852 29.1302 89.9852C54.873 89.9852 80.611 89.9852 106.354 89.9852C110.377 89.9852 113.546 88.4984 115.481 84.8261C116.072 83.7052 116.298 82.4858 116.457 81.2476C116.556 80.4878 116.241 80.1595 115.476 80.2017C114.894 80.2345 114.302 80.2064 113.72 80.2064C104.227 80.2064 94.7383 80.2251 85.2449 80.1876C84.2214 80.1876 83.9257 80.4268 83.9444 81.468C84.0008 84.3008 82.827 86.0783 80.5265 86.6224C78.8457 87.0164 77.1038 86.8475 75.3995 86.7115C74.5967 86.6458 74.1178 85.9705 74.0896 85.1403C74.0661 84.3196 74.4605 83.7192 75.2728 83.466C76.3808 83.1236 77.5217 83.33 78.6485 83.3018C80.2166 83.2596 81.0617 81.9698 80.456 80.5206C80.3621 80.3002 80.2307 80.2251 80.0241 80.2204C79.7095 80.2111 79.3997 80.2111 79.0851 80.2111C66.6621 80.2111 54.2438 80.1876 41.8208 80.2627C41.0462 80.2627 39.4452 79.2262 39.478 81.3414C39.5062 83.1283 39.7034 83.2971 42.0368 83.2971C50.1592 83.2971 58.2862 83.2971 66.4086 83.2971C66.7232 83.2971 67.033 83.2831 67.3476 83.3065C68.5777 83.405 69.3993 84.1789 69.3336 85.1638C69.2725 86.1581 68.512 86.7912 67.2819 86.7912C58.413 86.8006 49.5488 86.81 40.6799 86.7865C38.0367 86.7819 36.2103 84.9902 36.0366 82.3638C36.0084 81.9745 35.9756 81.5806 36.0131 81.196C36.0835 80.4549 35.8394 80.1642 35.0366 80.197C33.4778 80.2627 31.9144 80.2158 30.3509 80.2158C21.8764 80.2158 13.3973 80.2158 4.92278 80.2158C3.51428 80.2158 3.38751 80.3658 3.5847 81.7729C4.27017 86.7396 8.05904 89.9383 13.3362 89.9899C15.4443 90.0133 17.557 89.9758 19.6651 90.018C20.7543 90.0415 21.4023 90.6887 21.4445 91.6455C21.4868 92.5741 20.8623 93.3855 19.8013 93.4042C16.449 93.4652 13.0733 93.8217 9.76333 93.0806C4.30304 91.8518 0.152651 86.7443 0.00241077 81.2194C-0.0727093 78.4757 1.6128 76.7216 4.34999 76.6982C4.38755 76.6982 4.4298 76.6982 4.46736 76.6982C6.10122 76.6888 6.11061 76.6841 5.4674 75.1692C4.95564 73.9545 4.88052 72.6882 4.88522 71.3937C4.89461 59.223 4.88991 47.0522 4.88991 34.8815C4.88991 26.0642 4.87583 17.2515 4.89461 8.43419C4.904 4.33506 7.13882 1.38032 10.9699 0.315671C11.9183 0.0530265 12.8996 0.020196 13.8715 0.020196C38.8724 0.020196 63.8686 0.020196 88.8695 0.020196C89.4094 0.020196 89.9822 0.0248861 90.4893 0.189039C91.2733 0.437613 91.6865 1.07546 91.6161 1.90092C91.5504 2.7123 91.0808 3.28449 90.2498 3.42519C89.7146 3.5143 89.1606 3.49085 88.616 3.49085C63.8123 3.49085 39.0085 3.49085 14.2048 3.50023C13.4677 3.50023 12.7165 3.53775 11.9935 3.66907C10.0216 4.02083 8.53793 5.74209 8.42056 7.74475C8.41117 7.89952 8.40178 8.05429 8.40178 8.21375C8.40178 29.4739 8.39708 50.734 8.40647 71.9941C8.40647 74.386 9.83845 76.1354 12.0827 76.6044C12.4958 76.6935 12.9372 76.6935 13.3644 76.6935C44.3796 76.6935 75.3901 76.6935 106.405 76.6935C109.443 76.6935 111.335 74.8456 111.34 71.8487C111.349 62.7968 111.335 53.7497 111.363 44.6978C111.363 43.8442 111.166 43.4503 110.269 43.591C110.002 43.6332 109.72 43.6332 109.452 43.591C108.546 43.469 108.269 43.8114 108.274 44.7494C108.312 53.018 108.297 61.2866 108.293 69.5599C108.293 72.3552 107.011 73.6497 104.236 73.6497C74.6671 73.6497 45.0979 73.6497 15.5288 73.6497C12.7306 73.6497 11.4676 72.3833 11.4676 69.5787C11.4676 50.0351 11.5005 30.4916 11.4301 10.9481C11.4207 7.96518 12.9418 6.54878 15.8293 6.55347C43.4453 6.59568 71.0613 6.57692 98.6774 6.57692C100.513 6.57692 102.349 6.56754 104.185 6.57692C107.081 6.60037 108.293 7.83386 108.297 10.7323C108.297 11.9048 108.335 13.0727 108.283 14.2405C108.25 14.9721 108.429 15.2676 109.236 15.2629C111.354 15.2582 111.354 15.2958 111.354 13.1805C111.354 11.661 111.354 10.1367 111.354 8.6171C111.344 5.32936 109.532 3.5143 106.199 3.48616C103.541 3.46271 100.884 3.49554 98.2313 3.46271C97.1374 3.44864 96.3252 2.69823 96.3862 1.76959C96.4566 0.742467 97.067 0.151518 98.1093 0.0436464C98.3816 0.015506 98.6539 0.00612581 98.9262 0.00612581C101.307 0.00612581 103.692 -0.0126345 106.072 0.015506C107.081 0.0295762 108.096 0.081167 109.077 0.381332C112.481 1.41315 114.767 4.35382 114.847 7.91828C114.894 10.0241 114.88 12.13 114.847 14.2358C114.838 14.8783 114.95 15.202 115.683 15.3145C118.472 15.746 119.95 17.4344 119.965 20.2485C120.002 26.294 120.007 32.3395 119.993 38.385C119.988 41.0959 118.331 43.0282 115.622 43.4503C114.701 43.5957 114.861 44.1491 114.861 44.7119C114.861 53.0227 114.852 61.3288 114.861 69.6396C114.861 72.0128 115.025 74.4048 113.42 76.6841V76.6982ZM59.9576 10.0616C45.389 10.0616 30.8157 10.071 16.2471 10.0382C15.2283 10.0382 14.9325 10.2774 14.9419 11.3233C14.9936 17.3313 14.9701 23.3392 14.9701 29.3472C14.9701 42.531 14.9795 55.7148 14.9513 68.9033C14.9513 69.7897 15.0452 70.1884 16.111 70.1837C22.9469 70.1274 29.7828 70.1462 36.6188 70.1696C37.3512 70.1696 37.6282 69.9633 37.7456 69.2269C38.262 65.9626 38.8536 62.7077 39.4123 59.4481C39.7316 57.5862 40.1588 55.7899 41.7504 54.5048C42.7129 53.7262 43.8115 53.2807 44.943 52.8445C47.4736 51.8643 50.1873 51.3577 52.5395 49.8944C53.3659 49.3832 53.4128 49.0221 52.5865 48.4921C50.7695 47.3337 49.3328 45.7859 48.5112 43.7973C48.0417 42.6577 47.4314 42.1793 46.1684 42.0386C42.2669 41.6071 40.2668 37.2125 42.3983 33.9247C42.7129 33.437 42.835 32.9633 42.8443 32.4005C42.8631 30.8809 42.7551 29.3332 43.004 27.8464C44.6097 18.2317 51.9621 12.5052 61.6385 13.4901C67.4509 14.081 72.0191 16.8857 74.8737 22.1292C76.5874 25.2762 76.9113 28.7047 76.855 32.2082C76.8456 32.7335 76.7423 33.2728 77.132 33.7747C79.8222 37.2312 76.8785 41.9119 73.0614 42.1042C72.2022 42.1464 71.7703 42.456 71.451 43.2627C70.6763 45.2325 69.3101 46.7708 67.6152 48.0231C66.3898 48.9236 66.3804 49.2753 67.6575 50.0258C70.0613 51.4468 72.7797 52.0753 75.3854 52.9711C78.3621 53.9889 80.0476 55.9868 80.5875 58.9885C81.1885 62.3184 81.7425 65.6578 82.2355 69.0065C82.3622 69.8695 82.6017 70.179 83.5219 70.1696C90.2404 70.1274 96.959 70.1321 103.678 70.1696C104.523 70.1696 104.804 70.0008 104.8 69.0909C104.762 60.9771 104.757 52.8633 104.8 44.7494C104.804 43.7739 104.471 43.6097 103.602 43.6191C99.7337 43.6707 95.8698 43.6707 92.0011 43.652C91.3297 43.652 90.8085 43.8208 90.3296 44.2898C89.1888 45.4107 88.0385 46.527 86.846 47.5916C85.9962 48.3514 84.9867 48.5718 83.921 48.0512C82.9115 47.5588 82.4467 46.7146 82.442 45.5983C82.4045 37.175 82.32 28.7469 82.3387 20.3235C82.3481 17.1577 84.2778 15.3614 87.4234 15.3474C92.5786 15.3192 97.7337 15.3145 102.893 15.3005C104.149 15.2973 104.776 14.6876 104.776 13.4713C104.776 12.7678 104.701 12.0596 104.795 11.3655C104.941 10.2492 104.476 10.0288 103.433 10.0335C88.9399 10.0663 74.4511 10.057 59.9576 10.057V10.0616ZM85.9962 43.5816C86.6628 42.9625 87.1887 42.5545 87.6159 42.062C88.8554 40.6315 90.3672 40.1203 92.2734 40.1344C99.5366 40.2001 106.8 40.1344 114.063 40.1109C116.058 40.1063 116.49 39.6701 116.49 37.7284C116.486 32.1144 116.476 26.4957 116.471 20.8816C116.471 19.0009 116.185 18.7101 114.307 18.7195C105.95 18.7523 97.5928 18.7805 89.2357 18.8368C85.7379 18.8602 85.8506 18.3068 85.8271 22.3027C85.7849 29.0095 85.8788 35.7163 85.921 42.4231C85.921 42.728 85.9586 43.0282 85.9962 43.5769V43.5816ZM69.1458 35.1066C69.1458 34.0936 69.1129 33.0758 69.1599 32.0628C69.1927 31.3686 69.0941 30.8949 68.3101 30.6604C67.5636 30.4353 66.8875 29.9569 66.4133 29.3378C65.9485 28.7234 65.5823 28.8548 65.0799 29.23C64.0094 30.0273 62.8122 30.5854 61.5727 31.0685C58.8074 32.1425 55.9434 32.166 53.0419 31.9924C51.0512 31.8752 50.4643 32.4896 50.4643 34.5016C50.4643 35.5569 50.4784 36.6075 50.4972 37.6627C50.5958 43.2158 54.0044 46.7474 59.568 47.0616C63.5493 47.2868 67.2208 44.8526 68.5683 41.1146C69.2725 39.1542 69.1364 37.1281 69.1505 35.1066H69.1458ZM46.3609 29.713C46.3609 29.91 46.328 30.107 46.3656 30.2946C46.4501 30.7027 46.0276 31.2889 46.6849 31.4859C47.2623 31.6594 47.591 31.2842 47.8727 30.7965C48.2718 30.1164 48.868 29.6146 49.53 29.1831C50.9855 28.231 52.6053 28.3717 54.1828 28.5265C57.9012 28.8876 61.1784 27.898 64.1268 25.6374C65.7137 24.418 66.9626 24.6056 68.2913 26.097C68.7983 26.6692 69.1646 27.4337 70.0284 27.5744C71.9158 27.8886 72.8361 28.9439 72.6623 30.8903C72.6389 31.1435 72.6107 31.5 73.0285 31.4718C73.437 31.4437 73.3243 31.0826 73.3384 30.8387C73.3948 29.6662 73.2586 28.4983 73.0145 27.3586C71.5261 20.4595 65.1128 16.1212 58.0374 16.9467C51.178 17.744 46.4736 23.5081 46.3609 29.7177V29.713ZM76.1179 70.1462C76.6249 70.1462 77.1414 70.0899 77.639 70.1602C78.6626 70.3056 78.9114 69.9117 78.733 68.9408C78.1555 65.7656 77.6437 62.5811 77.0803 59.4012C76.8315 58.0083 76.1366 56.9764 74.7 56.5027C73.0004 55.9446 71.3196 55.3349 69.6528 54.683C69.0284 54.4391 68.85 54.6642 68.6669 55.1942C68.3148 56.2213 67.9298 57.2391 67.5072 58.2428C67.0706 59.2793 66.3147 60.025 65.1503 60.0578C64.4414 60.0766 64.2348 60.4424 64.0047 60.9724C63.7137 61.6431 63.6573 62.2762 63.878 62.9985C64.2958 64.3727 64.6104 65.775 64.986 67.1633C65.8076 70.2353 65.8123 70.2118 69.0096 70.1602C69.7092 70.1509 69.9768 69.9679 69.9533 69.241C69.9158 68.1904 69.9111 67.1304 70.0191 66.0893C70.1317 64.9965 70.836 64.4337 71.8219 64.5228C72.8314 64.6119 73.3431 65.2169 73.4041 66.2112C73.4276 66.638 73.4229 67.0695 73.4229 67.4963C73.4229 69.2597 74.3228 70.1415 76.1226 70.1415L76.1179 70.1462ZM51.8212 70.1462C52.2484 70.1462 52.6804 70.1227 53.1076 70.1509C53.6053 70.1884 53.8682 70.043 54.0044 69.5083C54.6241 67.1023 55.3096 64.7151 55.9246 62.3091C56.1218 61.5446 55.3425 60.1329 54.7368 60.1C53.2438 60.0203 52.4081 59.1808 51.9667 57.8394C51.6757 56.953 51.3658 56.076 51.0982 55.1848C50.9667 54.758 50.8212 54.4954 50.2953 54.6924C48.4737 55.3724 46.6332 55.9915 44.8256 56.695C43.9993 57.0187 43.3373 57.6331 43.1683 58.5336C42.5016 62.1261 41.896 65.7281 41.2574 69.3207C41.1588 69.8835 41.2574 70.1884 41.9429 70.1555C43.112 70.104 44.2857 70.118 45.4548 70.1555C46.0229 70.1696 46.2013 69.9586 46.1825 69.4098C46.1496 68.3968 46.1496 67.3837 46.1825 66.3707C46.2201 65.2497 46.8961 64.5415 47.8727 64.5181C48.915 64.4899 49.6099 65.1981 49.6756 66.3847C49.7038 66.9288 49.6803 67.4775 49.685 68.0216C49.685 69.438 50.397 70.1462 51.8212 70.1462ZM57.4599 70.1462C58.9435 70.1462 60.23 70.1462 61.5117 70.1462C61.831 70.1462 62.1831 70.1696 62.0516 69.6725C61.5493 67.8011 61.0234 65.9345 60.5351 64.0631C60.4318 63.6692 60.2112 63.5941 59.8637 63.6035C59.5022 63.6129 59.1877 63.6035 59.0703 64.0772C58.5632 66.0611 58.0233 68.0403 57.4646 70.1509L57.4599 70.1462ZM57.8308 50.4666C57.7839 50.5604 57.7369 50.6589 57.69 50.7527C58.2768 51.2968 58.8684 51.8361 59.4459 52.3942C59.6947 52.6334 59.8966 52.7788 60.2112 52.474C60.8591 51.8455 61.5258 51.2358 62.385 50.4385C60.6666 50.5464 59.2487 50.673 57.8261 50.4713L57.8308 50.4666ZM59.845 60.086C61.014 60.297 61.0234 59.2277 61.122 58.5945C61.23 57.9004 60.3379 57.497 59.8684 57.4736C59.3097 57.4454 58.4083 57.8957 58.4693 58.5617C58.5257 59.1714 58.6102 60.2407 59.845 60.086ZM72.6576 36.7341C72.6576 37.1609 72.6764 37.5877 72.6576 38.0145C72.6342 38.4788 72.7985 38.6476 73.2727 38.5351C74.3431 38.2724 74.977 36.9827 74.437 36.0634C74.1131 35.51 73.5966 34.9659 72.9675 35.0973C72.3196 35.2286 72.7891 35.9462 72.667 36.387C72.6389 36.4949 72.667 36.6168 72.667 36.7341H72.6576ZM46.9619 36.7763C46.9619 36.7763 46.9525 36.7763 46.9478 36.7763C46.9478 36.3495 46.9478 35.9227 46.9478 35.4959C46.9431 35.0457 46.6802 34.9753 46.328 35.1207C45.6989 35.388 45.1825 35.7867 45.0322 36.4996C44.9008 37.1234 45.1073 37.6533 45.5909 38.0567C45.9149 38.324 46.2811 38.6805 46.7177 38.5022C47.1731 38.3193 46.9055 37.8222 46.9525 37.4657C46.9853 37.2359 46.9572 37.0014 46.9572 36.7716L46.9619 36.7763ZM55.1265 56.1932C56.5162 55.4553 56.6821 54.5689 55.6242 53.5339C55.4551 53.3698 55.2861 53.215 55.1218 53.0462C54.9199 52.8351 54.7039 52.6944 54.4081 52.8539C54.0936 53.0227 54.1358 53.2807 54.2344 53.5574C54.5349 54.4344 54.826 55.3115 55.1265 56.1979V56.1932ZM65.6527 53.29C65.6339 52.8163 65.3898 52.5912 65.0611 52.8445C64.3287 53.4167 63.6385 54.0498 62.9718 54.7018C62.5211 55.1426 63.0517 55.3349 63.2958 55.4475C63.7277 55.6492 64.1879 56.5121 64.6057 55.9212C65.1456 55.1567 65.3334 54.1436 65.6527 53.29Z" fill="currentColor"/>
    <path d="M23.8202 24.0943C20.7778 24.0896 18.435 21.7305 18.4538 18.682C18.4726 15.7319 20.8342 13.3353 23.7779 13.2884C26.6747 13.2415 29.2429 15.7788 29.2617 18.7008C29.2805 21.6602 26.8203 24.0943 23.8202 24.0897V24.0943ZM25.7451 18.7477C25.7639 17.7674 24.778 16.7872 23.8014 16.806C22.8014 16.8247 21.9797 17.6643 21.9657 18.6914C21.9469 19.7373 22.7122 20.5486 23.7451 20.5862C24.8202 20.6284 25.731 19.7935 25.7498 18.7477H25.7451Z" fill="currentColor"/>
    <path d="M98.0999 35.5053C96.3439 35.5053 94.5927 35.5147 92.8368 35.5053C91.5457 35.4959 90.7522 34.8487 90.7146 33.8169C90.6771 32.7522 91.5081 32.0159 92.8509 32.0112C96.358 31.9924 99.8652 31.9924 103.372 32.0112C104.729 32.0206 105.504 32.7241 105.466 33.8309C105.429 34.8815 104.678 35.4959 103.358 35.5053C101.602 35.5194 99.8511 35.5053 98.0952 35.5053H98.0999Z" fill="currentColor"/>
    <path d="M103.889 27.0819C102.138 27.0819 100.382 27.0913 98.6304 27.0819C97.3205 27.0725 96.574 26.4441 96.5505 25.3841C96.5271 24.2773 97.2877 23.5878 98.6586 23.5831C102.166 23.5644 105.673 23.5644 109.175 23.5831C110.471 23.5878 111.265 24.2679 111.298 25.295C111.33 26.3596 110.499 27.0678 109.152 27.0819C107.401 27.096 105.645 27.0819 103.894 27.0819H103.889Z" fill="currentColor"/>
    <path d="M92.4846 23.5878C93.4424 23.5925 94.25 24.4414 94.2124 25.4029C94.1749 26.3174 93.3767 27.0772 92.4612 27.0678C91.5503 27.0585 90.7428 26.2799 90.7146 25.3794C90.6865 24.4649 91.555 23.5784 92.4846 23.5831V23.5878Z" fill="currentColor"/>
    <path d="M111.298 33.7137C111.33 34.5813 110.537 35.4302 109.645 35.4912C108.682 35.5569 107.837 34.7783 107.809 33.8075C107.786 32.8788 108.504 32.0862 109.429 32.0206C110.335 31.9549 111.265 32.7944 111.298 33.7137Z" fill="currentColor"/>
  </g>
  <defs>
    <clipPath id="clip0_795_2492">
      <rect width="118" height="99" fill="white"/>
    </clipPath>
  </defs>
</svg>
