<svg xmlns="http://www.w3.org/2000/svg" width="121" height="120" viewBox="0 0 121 120" fill="none">
  <g clip-path="url(#clip0_786_706)">
    <path d="M28.4248 58.9514C28.4248 59.2892 28.4248 59.6223 28.4248 59.9601C28.4248 71.361 28.4295 82.7571 28.4108 94.158C28.4108 94.979 28.6078 95.664 29.077 96.3303C30.0576 97.7331 31.0101 99.164 31.9344 100.609C33.0088 102.284 32.1971 103.95 30.2218 103.959C22.377 104.001 14.5274 103.997 6.68257 103.959C4.71666 103.95 3.91904 102.289 4.96534 100.604C5.06856 100.44 5.16709 100.267 5.29846 100.126C7.97753 97.1466 8.79393 93.6935 8.51241 89.7056C8.21682 85.5112 8.41388 81.2792 8.47018 77.0614C8.48426 76.109 8.18867 75.8697 7.28783 75.9119C5.73011 75.9823 4.16302 75.9495 2.60531 75.9213C1.25874 75.8978 0.484572 75.1566 0.484572 73.8147C0.470496 65.6934 0.40481 57.572 0.512723 49.4553C0.57841 44.515 4.74482 40.3816 9.69008 40.0438C9.87775 40.0297 10.0607 40.0015 10.4126 39.9593C9.5024 38.4017 8.70478 36.8909 8.57341 35.1597C8.38104 32.7059 8.24497 30.2381 8.72824 27.8125C9.65723 23.1723 14.3022 19.6489 18.8815 20.0054C24.2021 20.423 28.148 24.2702 28.3826 29.3326C28.4577 30.97 28.4154 32.6121 28.4154 34.2495C28.4154 36.3045 27.6788 38.1202 26.4824 39.9358C31.2259 40.2596 34.5149 42.5491 36.4761 47.0626C37.1002 45.3454 37.6585 43.8112 38.2168 42.277C38.9769 40.1892 39.2162 40.0203 41.4355 40.0203C43.6594 40.0203 45.8881 40.0062 48.112 40.0203C50.0404 40.0344 50.8662 41.2495 50.153 43.0558C48.1214 48.1933 46.0664 53.3213 44.016 58.4494C42.7117 61.7195 40.3188 63.6853 36.7999 63.9058C33.234 64.131 30.5878 62.4748 28.9034 59.3126C28.833 59.1813 28.758 59.0546 28.6829 58.9232C28.5984 58.9326 28.514 58.942 28.4295 58.9467L28.4248 58.9514ZM16.437 53.9735C16.437 51.0083 16.3995 48.0384 16.4605 45.0733C16.4793 44.1772 16.2024 43.9426 15.3391 43.9801C13.7814 44.0458 12.219 43.9801 10.6566 44.0036C6.94062 44.0505 4.46799 46.5605 4.45392 50.2952C4.44453 53.8468 4.45392 57.3984 4.45392 60.95C4.45392 64.0606 4.45392 64.0419 7.58811 63.9715C8.22621 63.9574 8.49833 63.8167 8.4608 63.127C8.40919 62.1933 8.44672 61.255 8.44672 60.3167C8.44672 56.9574 8.44672 53.6028 8.44672 50.2435C8.44672 49.3052 8.80331 48.5639 9.68069 48.1651C10.3704 47.8508 11.0601 47.9493 11.6701 48.3997C12.3363 48.8923 12.4442 49.6008 12.4395 50.3796C12.4255 55.8455 12.4489 61.3113 12.4161 66.7771C12.4114 67.6498 12.5709 67.9923 13.5515 67.9735C16.8311 67.9079 20.1108 67.9125 23.3904 67.9735C24.3147 67.9923 24.4789 67.6733 24.4742 66.8381C24.4367 62.6203 24.4555 58.4071 24.4555 54.1893C24.4555 52.824 24.4179 51.454 24.4742 50.0887C24.5352 48.6296 25.5393 47.7945 26.8484 48.0197C27.6647 48.1604 28.087 48.7375 28.4295 49.4366C29.7949 52.1953 31.118 54.9775 32.5772 57.6846C34.1865 60.6638 38.2309 60.8093 39.8168 57.9192C40.7458 56.2255 41.3369 54.3441 42.0783 52.5472C42.1674 52.3314 42.2565 52.0311 41.9047 52.0217C40.971 51.9936 40.0091 51.8997 39.1083 52.078C38.5922 52.1812 38.6062 52.9694 38.4139 53.4621C38.0714 54.3441 37.4661 54.9259 36.509 54.9493C35.5002 54.9728 34.8433 54.3957 34.5008 53.4574C33.8627 51.7027 33.2856 49.9245 32.5678 48.2026C31.4652 45.5424 29.4477 44.0833 26.5246 44.0129C24.8449 43.9754 23.1652 44.0552 21.4902 43.9801C20.5706 43.9379 20.397 44.2851 20.4017 45.1249C20.4345 50.4359 20.4204 55.7422 20.4204 61.0533C20.4204 64.0231 20.4204 63.995 17.4129 63.9762C16.6529 63.9762 16.4089 63.7698 16.423 62.9956C16.4652 59.9882 16.4417 56.9855 16.437 53.9781V53.9735ZM26.5246 99.9898C26.4448 99.347 26.1399 99.0139 25.8771 98.7043C24.6948 97.3155 24.3992 95.7391 24.4179 93.9375C24.493 86.9937 24.432 80.0453 24.4696 73.0969C24.4696 72.1867 24.235 71.9005 23.2966 71.9146C20.0592 71.9709 16.8171 71.9709 13.5797 71.9146C12.646 71.8958 12.4067 72.1726 12.4114 73.0922C12.4489 79.9609 12.3738 86.8295 12.4677 93.6982C12.4958 95.7016 12.2002 97.4657 10.849 98.9905C10.6425 99.225 10.3469 99.4925 10.4502 99.9945C12.036 99.9945 13.6266 99.9382 15.2124 100.013C16.1743 100.06 16.4652 99.7834 16.4605 98.7934C16.4183 92.1218 16.437 85.4455 16.437 78.7739C16.437 75.9072 16.437 75.9448 19.3179 75.9213C20.1859 75.9166 20.4439 76.1418 20.4392 77.0285C20.397 82.1425 20.4204 87.2518 20.4204 92.3658C20.4204 94.5896 20.4298 96.8135 20.4158 99.0374C20.4158 99.6004 20.4439 100.018 21.204 100.004C22.9541 99.9663 24.6995 99.9898 26.5293 99.9898H26.5246ZM24.432 31.9834C24.432 31.9834 24.4226 31.9834 24.4133 31.9834C24.4133 31.2046 24.4555 30.421 24.4039 29.6422C24.2115 26.5269 21.9312 24.2468 18.7689 23.9699C15.9444 23.7213 13.2231 25.8326 12.5944 28.7743C12.2284 30.4727 12.4255 32.1945 12.4395 33.907C12.4677 37.3085 15.1186 39.9734 18.4123 40.0062C21.6497 40.0391 24.2537 37.4868 24.4179 34.0853C24.4508 33.3862 24.4226 32.6825 24.4226 31.9787L24.432 31.9834ZM8.44203 69.9628C8.44203 68.6179 7.77266 67.9454 6.4339 67.9454C5.09514 67.9454 4.43359 68.6257 4.44923 69.9863C4.44923 71.2906 5.09984 71.9427 6.40106 71.9427C7.76171 71.9427 8.44203 71.2828 8.44203 69.9628ZM45.4752 44.0036C44.3397 44.0036 43.3732 44.0083 42.4067 44.0036C42.0126 44.0036 41.778 44.1162 41.6419 44.5337C41.3322 45.4908 40.9522 46.4245 40.605 47.3675C40.4502 47.7945 40.5487 47.9681 41.0507 48.0244C43.6219 48.3106 43.7955 48.2214 44.762 45.8052C44.9732 45.2703 45.1843 44.7355 45.4752 44.0083V44.0036Z" fill="currentColor"/>
    <path d="M78.4593 73.7022C78.4593 75.424 78.4312 77.2022 78.4734 78.985C78.4875 79.67 78.3186 79.9281 77.5726 79.9468C74.4712 80.0219 74.4712 80.0454 74.4712 76.9864C74.4712 76.1278 74.4337 75.2645 74.4806 74.4106C74.5275 73.5849 74.307 73.4629 73.5891 73.8805C70.5206 75.6633 67.424 77.3852 64.3696 79.1821C63.6423 79.609 63.3233 79.5903 62.8869 78.8021C61.4606 76.2169 61.4231 76.2404 64.0224 74.7625C67.241 72.9327 70.4503 71.0889 73.6783 69.2779C74.2507 68.9588 74.5041 68.5976 74.49 67.9126C74.4431 65.6512 74.429 63.3804 74.49 61.119C74.5181 60.2041 74.2601 59.9414 73.3311 59.9461C65.4815 59.9836 57.6367 59.9461 49.7871 59.993C48.708 59.9977 48.4218 59.7115 48.45 58.6512C48.525 55.9863 48.4687 55.9863 51.1337 55.9863C71.1259 55.9863 91.1181 55.9769 111.11 56.0097C112.142 56.0097 112.476 55.7939 112.471 54.6867C112.429 40.8649 112.429 27.0431 112.471 13.2213C112.471 12.1797 112.199 11.9357 111.176 11.9404C88.0214 11.9733 64.8669 11.9733 41.7124 11.9404C40.6286 11.9404 40.4456 12.2829 40.4503 13.2635C40.4878 20.409 40.4503 27.5545 40.4925 34.6999C40.4972 35.718 40.2532 36.0465 39.1975 36.023C36.4856 35.962 36.4856 36.0136 36.4856 33.344C36.4856 26.6302 36.4668 19.9117 36.5044 13.1978C36.5091 12.2407 36.2745 11.9217 35.2798 11.9451C32.9808 12.0061 32.4834 11.4525 32.4834 9.13479C32.4834 6.86869 32.4647 4.60728 32.4881 2.34118C32.5069 0.69439 33.2107 0.00939941 34.8622 0.00939941C62.5866 0.00939941 90.3064 0.00939941 118.031 0.00939941C119.654 0.00939941 120.4 0.755382 120.41 2.36933C120.424 4.79026 120.424 7.21118 120.41 9.63211C120.4 11.2461 119.668 11.9498 118.031 11.9686C116.961 11.9811 116.426 12.5206 116.426 13.5872C116.426 27.2917 116.44 40.9962 116.398 54.7007C116.398 55.8127 116.726 56.0426 117.759 56.0191C120.414 55.9534 120.363 56.0003 120.438 58.6605C120.466 59.7209 120.189 60.0071 119.105 60.0024C105.987 59.9601 92.8682 59.993 79.7449 59.9508C78.6329 59.9508 78.3937 60.2792 78.4265 61.3113C78.5016 63.493 78.4828 65.684 78.4312 67.8704C78.4124 68.5929 78.6564 68.987 79.2804 69.3389C82.9823 71.422 86.6467 73.5661 90.3627 75.6258C91.1744 76.0762 91.4794 76.4234 90.8506 77.2397C90.2829 77.9763 90.0952 79.3416 89.3492 79.4777C88.6408 79.609 87.7305 78.7223 86.9235 78.2578C84.3148 76.7752 81.7155 75.2833 79.1068 73.8007C78.9473 73.7116 78.7972 73.5473 78.4546 73.7069L78.4593 73.7022ZM76.4137 7.97593H113.888C116.44 7.97593 116.36 7.97593 116.473 5.44241C116.534 4.15218 116.07 3.95513 114.915 3.95982C89.6589 3.99267 64.4071 3.98328 39.1506 3.98328C36.4575 3.98328 36.4997 3.98328 36.4387 6.63879C36.4152 7.67566 36.6592 8.00877 37.7665 8.00408C50.6458 7.96186 63.5297 7.97593 76.409 7.97593H76.4137Z" fill="currentColor"/>
    <path d="M84.263 104.133C86.6183 104.667 88.4951 105.728 89.9543 107.445C90.339 107.895 90.5267 107.891 90.9114 107.445C92.3753 105.728 94.252 104.672 96.5558 104.151C95.5798 102.627 94.7259 101.102 94.5617 99.3189C94.3271 96.7901 94.1957 94.2425 94.6978 91.7418C95.6549 86.9938 100.3 83.6064 105.123 84.0287C110.251 84.4791 114.15 88.4201 114.352 93.3605C114.38 94.1018 114.362 94.843 114.39 95.5843C114.502 98.587 114.362 101.529 112.213 104.095C114.61 104.691 116.553 105.737 118.04 107.525C119.598 109.392 120.381 111.546 120.409 113.971C120.428 115.651 120.386 117.33 120.428 119.005C120.442 119.672 120.32 119.953 119.551 119.962C116.435 120.005 116.459 120.038 116.426 116.922C116.412 115.487 116.604 114.037 116.252 112.611C115.567 109.838 113.367 108.008 110.542 107.989C106.442 107.956 102.346 107.952 98.2448 107.989C95.2373 108.017 92.76 110.269 92.5207 113.253C92.3706 115.116 92.4128 116.997 92.4316 118.869C92.441 119.625 92.3049 119.967 91.4228 119.967C88.4435 119.967 88.4482 120.005 88.4388 116.993C88.4388 115.782 88.4669 114.567 88.359 113.366C88.0822 110.246 85.6471 108.008 82.4941 107.985C78.4356 107.952 74.3725 107.947 70.314 107.985C67.039 108.013 64.4913 110.588 64.4303 113.877C64.3975 115.632 64.4022 117.391 64.4303 119.146C64.4397 119.751 64.2614 119.93 63.6421 119.953C60.4375 120.07 60.461 120.089 60.4235 116.889C60.4047 115.374 60.6252 113.849 60.2076 112.348C59.4945 109.786 57.2893 108.008 54.643 107.985C50.5048 107.952 46.3665 107.942 42.2283 107.985C39.1457 108.017 36.6684 110.401 36.5041 113.502C36.4056 115.332 36.4385 117.171 36.4666 119.005C36.476 119.695 36.293 119.939 35.5564 119.953C32.4785 120.005 32.4691 120.033 32.4832 116.974C32.4926 115.299 32.3002 113.601 32.6756 111.954C33.6327 107.745 36.3352 105.216 40.5767 104.1C37.8085 100.398 38.151 96.1943 38.6859 92.0562C39.3005 87.3316 44.0534 83.6815 48.811 83.9911C54.0284 84.3242 58.1057 88.2137 58.3449 93.1446C58.4247 94.7821 58.3919 96.4242 58.3919 98.0616C58.3919 100.027 57.8288 101.824 56.7075 103.438C56.3743 103.922 56.2664 104.137 57.0265 104.334C59.2036 104.897 60.9724 106.145 62.394 107.961C63.2714 107.074 64.0644 106.169 65.0966 105.531C66.1335 104.893 67.2455 104.447 68.4231 104.165C68.4935 103.79 68.2214 103.584 68.0619 103.33C67.0859 101.782 66.4713 100.117 66.4901 98.268C66.5135 96.0864 66.2273 93.8906 66.7247 91.7371C67.8648 86.7733 72.2893 83.5923 77.3706 84.0427C82.3158 84.4791 86.1679 88.467 86.4119 93.4684C86.4916 95.1058 86.4869 96.7479 86.4119 98.3853C86.318 100.454 85.5814 102.326 84.2583 104.128L84.263 104.133ZM54.4272 95.9362C54.4272 95.9362 54.4084 95.9362 54.399 95.9362C54.399 95.1199 54.446 94.2941 54.3897 93.4825C54.1832 90.461 51.856 88.2043 48.7453 87.965C45.9208 87.7492 43.2558 89.7948 42.613 92.6661C42.233 94.3645 42.4347 96.0864 42.4394 97.7941C42.4488 101.266 45.1138 103.973 48.4403 103.983C51.7012 103.992 54.263 101.458 54.4225 98.0428C54.4554 97.3437 54.4272 96.64 54.4272 95.9362ZM70.4782 95.9925C70.4782 96.7338 70.45 97.4751 70.4782 98.2164C70.6096 101.308 72.8898 103.663 76.0334 103.968C78.8579 104.245 81.6308 102.172 82.2642 99.2392C82.6818 97.3156 82.5411 95.3451 82.4003 93.4121C82.1704 90.2499 79.3975 87.8524 76.3196 87.9462C73.0963 88.0448 70.6049 90.522 70.4735 93.7686C70.4453 94.5099 70.4735 95.2512 70.4735 95.9925H70.4782ZM110.397 95.9925C110.397 95.9925 110.392 95.9925 110.387 95.9925C110.387 95.2137 110.42 94.4302 110.383 93.6514C110.237 90.5548 107.952 88.2465 104.776 87.9697C101.951 87.721 99.2677 89.7291 98.6014 92.6145C98.1932 94.3879 98.4138 96.1896 98.4231 97.9771C98.4466 101.289 101.112 103.936 104.358 103.987C107.6 104.044 110.261 101.449 110.387 98.0991C110.416 97.4 110.387 96.6963 110.387 95.9925H110.397Z" fill="currentColor"/>
    <path d="M93.5249 24.8239C92.5725 24.5752 91.7186 24.3078 90.8459 24.1483C90.1655 24.0263 89.9779 23.8246 90.1515 23.0786C90.8693 20.043 90.8365 20.0337 93.8393 20.789C95.4627 21.1972 97.0814 21.6101 98.7095 21.9995C99.8121 22.2622 100.408 22.9754 100.427 24.0685C100.474 26.4472 100.436 28.8306 100.455 31.214C100.455 31.777 100.216 31.9975 99.6854 31.9647C99.6056 31.96 99.5306 31.9647 99.4508 31.9647C97.4708 32.0304 96.4777 31.0811 96.4715 29.1168C96.4715 28.7743 96.4715 28.4365 96.4715 28.0893C95.8756 28.0049 95.6034 28.4131 95.2797 28.6383C90.2547 32.1336 85.2437 35.6524 80.2281 39.1618C78.6328 40.2784 78.1121 40.2549 76.6106 39.0539C74.1427 37.0833 71.6513 35.1316 69.2162 33.1235C68.5922 32.6075 68.1981 32.584 67.5318 33.0672C63.8768 35.7368 60.1702 38.3267 56.5152 40.9915C55.8115 41.5076 55.483 41.4607 54.981 40.7382C53.3201 38.3454 53.2919 38.3736 55.6285 36.7033C59.3116 34.076 62.9901 31.4392 66.6685 28.8072C68.184 27.7234 68.8502 27.7421 70.3 28.9057C72.7961 30.9091 75.2969 32.903 77.793 34.9017C78.1871 35.216 78.4968 35.5445 79.0974 35.1175C83.8033 31.777 88.5374 28.4787 93.2575 25.1664C93.3185 25.1242 93.356 25.0491 93.5296 24.8239H93.5249Z" fill="currentColor"/>
  </g>
  <defs>
    <clipPath id="clip0_786_706">
      <rect width="120" height="120" fill="white" transform="translate(0.447266)"/>
    </clipPath>
  </defs>
</svg>
