<svg xmlns="http://www.w3.org/2000/svg" width="120" height="120" viewBox="0 0 120 120" fill="none">
  <g clip-path="url(#clip0_786_713)">
    <path d="M47.3916 48.143C45.1692 47.2134 43.4423 46.1839 42.1759 44.5047C40.7744 42.6505 40.0436 40.5815 40.0236 38.2675C40.0086 36.6033 40.0036 34.939 40.0286 33.2798C40.0386 32.6851 39.9135 32.3352 39.3028 32.0354C37.0804 30.9359 35.9892 29.0767 36.0343 26.6029C36.1044 23.0345 35.799 19.4561 36.2445 15.8878C37.2006 8.1863 43.9779 1.22449 51.7263 0.509818C57.6827 -0.0399304 63.7293 -0.379775 69.6407 0.759703C77.8896 2.34398 83.9512 9.99547 83.9962 18.3766C84.0113 21.1204 83.9962 23.8641 83.9962 26.6079C83.9962 29.0717 82.9401 30.9459 80.7127 32.0354C80.092 32.3402 79.9869 32.7001 79.9969 33.2848C80.0219 34.949 80.057 36.6133 79.9969 38.2725C79.8468 42.4456 77.9347 45.5342 74.1756 47.4333C73.7802 47.6332 73.3697 47.8181 72.7391 48.118C74.0555 48.3829 75.1417 48.5578 76.2078 48.8277C85.5529 51.2166 91.9849 59.4728 92.0049 69.0684C92.0049 71.1075 92.035 73.1465 91.9899 75.1806C91.9749 75.8853 92.1901 76.1052 92.9009 76.0952C95.6489 76.0602 98.3969 76.0552 101.145 76.0952C101.906 76.1052 102.021 75.8003 102.016 75.1456C101.996 66.9094 102.016 58.6782 102.001 50.4419C102.001 48.5878 100.174 47.4733 98.3368 48.133C98.0114 48.2479 98.0064 48.4528 98.0014 48.7027C97.9964 49.2025 98.0264 49.7023 97.9864 50.197C97.8963 51.2366 97.3007 52.0112 96.2896 52.0562C94.4276 52.1412 92.5355 52.3511 90.6935 51.9263C87.6602 51.2316 85.6731 48.4329 86.0285 45.4692C86.3938 42.4606 88.9266 40.1866 91.9849 40.1467C93.1512 40.1317 94.3174 40.1367 95.4837 40.1467C97.2656 40.1566 98.0765 40.8713 97.9614 42.6255C97.8763 43.9099 98.2817 44.1948 99.5231 44.1698C103.492 44.0898 105.985 46.6337 105.99 50.5969C105.99 58.6632 106.01 66.7295 105.965 74.8008C105.96 75.8303 106.21 76.2601 107.256 76.0802C109.849 75.6304 111.756 76.6449 113.443 78.619C115.165 80.6381 117.177 82.4123 119.059 84.2964C119.74 84.9761 120.246 85.7108 119.835 86.7303C119.415 87.7698 118.584 88.0547 117.528 88.0547C79.171 88.0447 40.8145 88.0447 2.45792 88.0547C1.45684 88.0547 0.65597 87.7948 0.215493 86.8253C-0.240001 85.8207 0.195471 85.0611 0.881214 84.3714C3.35389 81.9025 5.83658 79.4386 8.29424 76.9548C8.91992 76.3251 9.6407 75.9352 10.5267 76.0902C11.8531 76.3201 12.0583 75.7253 12.0533 74.5309C11.9983 66.5446 12.0233 58.5632 12.0283 50.5769C12.0283 46.6237 14.531 44.0798 18.5153 44.1698C19.8017 44.1998 20.1321 43.84 20.057 42.6005C19.9569 40.8963 20.7577 40.1167 22.4296 40.1516C24.1264 40.1866 25.8433 39.9168 27.5251 40.3566C30.3782 41.1062 32.3103 43.8599 31.9949 46.7286C31.6646 49.6823 29.1719 52.0112 26.2087 52.0962C24.9173 52.1312 23.6259 52.1162 22.3345 52.0962C20.8028 52.0762 20.1271 51.3165 19.9919 49.7922C19.9419 49.2175 20.6326 48.198 19.2912 48.108C17.294 47.9681 16.2629 48.5028 16.0476 49.8222C16.0026 50.1071 16.0226 50.402 16.0226 50.6918C16.0226 58.7581 16.0376 66.8244 16.0026 74.8957C16.0026 75.7903 16.1728 76.1102 17.1488 76.0902C20.3974 76.0252 23.6459 76.0252 26.8944 76.0902C27.8654 76.1102 28.0406 75.8003 28.0506 74.9007C28.0907 71.5023 27.7854 68.0938 28.4861 64.7104C30.2731 56.0744 37.591 49.3424 46.4005 48.3279C46.6007 48.3029 46.796 48.2479 47.3916 48.123V48.143ZM57.2172 13.8987C57.2072 14.9232 57.5826 15.7278 57.7829 16.5575C58.2834 18.6265 57.5126 19.661 55.3853 19.671C52.8025 19.686 50.2247 19.656 47.6419 19.681C45.6948 19.701 44.2632 21.0154 44.028 22.9345C43.8177 24.6288 43.4623 24.9986 41.8156 25.1985C40.7744 25.3234 40.1037 25.8432 40.0336 26.9277C39.9686 27.9273 40.6543 28.552 41.8656 28.6869C43.3472 28.8468 44.0029 29.5515 44.0129 31.0458C44.028 33.3298 44.028 35.6187 44.0129 37.9027C43.9979 40.8413 45.3594 42.9004 48.0223 44.0599C50.6101 45.1843 53.2229 46.2389 55.8407 47.2984C57.933 48.143 60.1254 48.5128 62.3078 47.8581C66.0468 46.7336 69.6507 45.2193 73.1095 43.4251C75.0466 42.4256 75.9475 40.5465 75.9926 38.3625C76.0426 35.9536 75.9976 33.5397 76.0076 31.1308C76.0126 29.5365 76.6333 28.8118 78.19 28.6969C79.2861 28.6119 79.9318 28.0722 79.9769 27.0177C80.0219 25.9332 79.3262 25.3634 78.2951 25.2085C76.4781 24.9386 76.2228 24.6887 75.9976 22.9096C75.7623 21.0504 74.3308 19.6111 72.4788 19.721C70.3515 19.846 68.5045 19.2212 66.6475 18.3067C63.5691 16.7924 60.4307 15.398 57.2172 13.9037V13.8987ZM6.86269 83.9766H113.263C112.077 82.8671 111.086 82.0375 110.22 81.0979C109.519 80.3382 108.788 80.0434 107.732 80.0434C96.2395 80.0834 84.7521 80.0684 73.2596 80.0684C52.8625 80.0684 32.4604 80.0684 12.0633 80.0734C11.5027 80.0734 10.9421 79.9534 10.4466 80.4732C9.35539 81.6126 8.19414 82.6822 6.86269 83.9766ZM54.9548 64.9103C54.0438 65.8599 53.3881 66.5396 52.7324 67.2192C52.1217 67.854 51.411 68.2888 50.51 68.0189C49.584 67.744 49.1635 67.0343 48.9883 66.0848C48.2025 61.8017 47.3415 57.5337 46.5757 53.2456C46.4356 52.451 46.2103 52.3361 45.4545 52.521C38.6521 54.1802 34.3274 58.3683 32.5205 65.1052C31.5995 68.5336 32.1501 72.052 32.025 75.5304C31.9999 76.2151 32.5105 76.0702 32.8959 76.0752C34.9381 76.0852 36.9753 76.0752 39.0175 76.0752C41.023 76.0752 42.0258 75.064 42.0258 73.0416C42.0258 69.983 42.0258 70.003 45.1091 70.0679C45.8049 70.0829 46.0551 70.2529 46.0301 70.9725C45.9801 72.3869 46.0401 73.8012 46.0051 75.2156C45.9901 75.8353 46.1402 76.1002 46.826 76.0902C48.9933 76.0502 51.1557 76.0602 53.323 76.0902C53.9287 76.0952 54.214 75.9452 54.254 75.2756C54.4542 71.9571 54.6995 68.6486 54.9598 64.9103H54.9548ZM65.0707 64.9203C65.326 68.6186 65.5613 71.8871 65.7565 75.1556C65.7965 75.8203 65.9667 76.1102 66.6975 76.0952C68.8599 76.0552 71.0222 76.0552 73.1895 76.0952C73.8703 76.1052 74.0355 75.8553 74.0154 75.2306C73.9804 73.8212 73.8853 72.3919 74.0304 70.9975C74.2357 69.0284 75.7823 70.4678 76.6583 70.1429C77.2089 69.938 78.0999 69.8031 78.0148 71.0425C77.9197 72.4069 78.0198 73.7812 77.9797 75.1556C77.9597 75.8153 78.0949 76.1152 78.8507 76.1052C81.5936 76.0652 84.3416 76.0702 87.0896 76.1052C87.7854 76.1152 88.0256 75.9203 88.0106 75.2006C87.9656 73.0016 88.0206 70.7976 87.9806 68.5936C87.8454 60.8672 82.1042 54.0403 74.506 52.491C73.8202 52.3511 73.585 52.441 73.4498 53.1857C72.674 57.5087 71.8181 61.8167 71.0172 66.1297C70.852 67.0243 70.4566 67.684 69.5806 67.9889C68.6646 68.3037 67.9639 67.8889 67.3482 67.2692C66.6525 66.5745 65.9767 65.8599 65.0657 64.9203H65.0707ZM80.0019 21.2153C80.0019 20.3257 80.0069 19.4411 80.0019 18.5515C79.9469 10.6502 73.5249 4.2481 65.5963 4.21312C61.8923 4.19813 58.1833 4.17814 54.4793 4.21812C49.6841 4.27309 45.7999 6.23719 42.8767 10.0305C40.5192 13.0891 39.3529 18.0918 40.2088 21.2453C40.2939 21.0804 40.374 20.9405 40.4341 20.7905C41.8106 17.3871 44.2882 15.6929 47.9172 15.6829C49.3737 15.6829 50.8353 15.6329 52.2869 15.6979C53.263 15.7428 53.4031 15.408 53.1178 14.5534C52.7674 13.4939 52.5672 12.3844 52.2268 11.3199C51.9165 10.3353 51.8614 9.42573 52.7124 8.69606C53.5733 7.9614 54.4442 8.20629 55.3802 8.65109C59.8101 10.7451 64.2649 12.7742 68.6897 14.8782C69.881 15.443 71.0572 15.7778 72.3887 15.7029C74.3057 15.6029 75.9575 16.3426 77.4091 17.562C78.5754 18.5416 79.2311 19.8659 79.9869 21.2153H80.0019ZM52.2368 61.7917C54.2841 59.8026 56.2011 57.9535 58.0982 56.0893C59.5548 54.655 60.4507 54.645 61.8823 56.0544C63.7994 57.9485 65.7315 59.8326 67.7837 61.8417C68.3693 58.7181 68.9349 55.6795 69.5005 52.6409C69.5906 52.1462 69.2703 52.1162 68.9049 52.1162C62.9935 52.1162 57.0821 52.1162 51.1657 52.1162C50.7352 52.1162 50.4149 52.1711 50.52 52.7209C51.0906 55.7295 51.6612 58.7431 52.2368 61.7867V61.7917ZM61.7471 74.201C61.4368 70.018 61.0914 65.555 60.7761 61.092C60.7361 60.5323 60.5258 60.0026 60.0153 59.9976C59.4997 59.9926 59.2745 60.5223 59.2394 61.0821C59.1393 62.6963 58.9842 64.3006 58.869 65.9148C58.6538 68.9734 58.4836 72.032 58.2233 75.0906C58.1483 75.9752 58.4836 76.1801 59.2544 76.0952C59.5848 76.0602 59.9202 76.0902 60.2505 76.0902C61.2883 76.0902 61.7872 75.4621 61.7471 74.206V74.201ZM25.2927 48.123C26.0335 48.178 26.6691 48.168 27.1797 47.7482C27.9706 47.1085 28.2659 46.3038 27.8204 45.3243C27.3349 44.2598 25.8933 43.725 24.4568 44.1598C23.5908 44.4197 24.1664 45.2093 24.0313 45.7441C23.9512 46.0539 24.0513 46.4088 24.0113 46.7336C23.8761 47.8031 24.1364 48.4578 25.2927 48.118V48.123ZM94.0271 46.1389C93.7819 45.3543 94.6978 43.9549 92.7307 44.1098C90.9388 44.2498 90.0128 44.8045 90.0028 46.1239C89.9927 47.4533 90.9238 48.018 92.7007 48.173C94.6328 48.3379 93.8269 46.9835 94.0271 46.1389Z" fill="currentColor"/>
    <path d="M11.898 119.995C8.77462 119.995 5.65624 120 2.53286 119.995C0.76094 119.995 0.00512097 119.27 0.0451644 117.506C0.0802023 115.852 -0.18008 114.183 0.245381 112.543C0.931124 109.9 3.22861 108.055 5.97158 108.036C10.011 108.006 14.0453 108.001 18.0847 108.036C21.3332 108.06 23.941 110.659 24.0161 113.893C24.0462 115.182 24.0412 116.472 24.0161 117.756C23.9911 119.21 23.2253 119.98 21.7687 119.99C18.4801 120.01 15.1916 119.995 11.903 119.995H11.898ZM12.0332 116.012C14.3657 116.012 16.6932 116.022 19.0207 116.002C19.3511 116.002 19.7765 116.202 19.9968 115.717C20.7826 113.983 19.5463 112.024 17.6292 112.014C14.0904 111.999 10.5566 112.014 7.01772 112.014C4.52502 112.014 3.96441 112.628 4.00445 115.117C4.01446 115.822 4.20968 116.042 4.92045 116.027C7.29302 115.987 9.66559 116.012 12.0332 116.012Z" fill="currentColor"/>
    <path d="M59.98 119.995C56.8566 119.995 53.7382 119.995 50.6148 119.995C48.6928 119.995 47.987 119.305 48.027 117.356C48.0621 115.742 47.8068 114.118 48.2323 112.519C48.913 109.93 51.1905 108.066 53.8533 108.041C57.9728 108.001 62.0973 107.991 66.2167 108.041C69.3201 108.081 71.8929 110.689 71.993 113.793C72.033 115.122 72.023 116.452 71.993 117.781C71.963 119.22 71.1871 119.98 69.7205 119.99C66.472 120.01 63.2285 119.995 59.98 119.995ZM60.005 116.012C62.3776 116.012 64.7502 116.022 67.1177 116.002C67.4431 116.002 67.8485 116.177 68.0087 115.607C68.5893 113.533 67.4981 112.014 65.3758 112.014C61.9221 112.014 58.4683 112.014 55.0146 112.014C52.5169 112.014 51.9713 112.618 51.9813 115.107C51.9813 115.952 52.3267 116.037 53.0174 116.027C55.345 115.997 57.6775 116.017 60.005 116.017V116.012Z" fill="currentColor"/>
    <path d="M107.927 119.995C104.764 119.995 101.6 120 98.4369 119.995C96.7451 119.99 95.9743 119.25 96.0093 117.571C96.0443 115.877 95.774 114.163 96.2195 112.484C96.9053 109.905 99.1927 108.061 101.866 108.036C105.945 108.001 110.024 107.996 114.104 108.036C117.282 108.066 119.88 110.659 119.97 113.823C120.005 115.112 119.99 116.402 119.97 117.686C119.95 119.21 119.189 119.98 117.658 119.985C114.409 120 111.166 119.985 107.917 119.99L107.927 119.995ZM107.987 116.012C110.36 116.012 112.732 116.022 115.1 116.002C115.425 116.002 115.831 116.177 115.991 115.607C116.567 113.533 115.48 112.014 113.358 112.014C109.904 112.014 106.451 112.014 102.997 112.014C100.499 112.014 99.9536 112.618 99.9636 115.107C99.9636 115.952 100.309 116.037 101 116.027C103.327 115.997 105.66 116.017 107.987 116.017V116.012Z" fill="currentColor"/>
    <path d="M66.0018 100.064C66.0018 103.288 63.2739 106.017 60.0504 106.022C56.7418 106.022 54.0038 103.298 54.0189 100.014C54.0289 96.7857 56.7418 94.077 59.9753 94.057C63.2689 94.037 66.0018 96.7658 66.0068 100.069L66.0018 100.064ZM60.0554 102.028C61.1416 102.003 62.0125 101.104 62.0075 100.019C61.9975 98.9348 61.1165 98.0502 60.0254 98.0402C58.8891 98.0302 57.9681 98.9797 58.0132 100.109C58.0582 101.194 58.9692 102.053 60.0554 102.028Z" fill="currentColor"/>
    <path d="M6.03199 99.9342C6.06202 96.7207 8.82501 94.0219 12.0535 94.0519C15.3571 94.0819 18.065 96.8456 18.015 100.129C17.9649 103.358 15.2269 106.031 11.9884 106.016C8.69988 105.996 6.00195 103.238 6.03199 99.9342ZM12.0235 98.0401C10.9373 98.0401 10.0413 98.9147 10.0213 99.9992C10.0013 101.084 10.8672 101.993 11.9534 102.028C13.0846 102.063 14.0357 101.134 14.0156 100.004C13.9956 98.9147 13.1097 98.0401 12.0185 98.0351L12.0235 98.0401Z" fill="currentColor"/>
    <path d="M102 99.9942C102 96.7707 104.733 94.047 107.962 94.0519C111.271 94.0519 114.003 96.7807 113.983 100.069C113.968 103.303 111.256 106.001 108.017 106.016C104.728 106.031 101.995 103.298 102 99.9942ZM108.037 102.028C109.123 102.003 109.999 101.099 109.989 100.019C109.979 98.8797 109.018 97.9801 107.882 98.0401C106.801 98.1001 105.95 99.0297 105.995 100.109C106.04 101.189 106.956 102.053 108.037 102.028Z" fill="currentColor"/>
    <path d="M53.7182 38.2126C55.0697 38.0827 55.8455 38.2126 56.6614 39.0722C58.3032 40.7914 62.3125 40.4616 63.7991 38.6474C64.1044 38.2776 64.3647 38.1276 64.8152 38.1476C65.4359 38.1776 66.0616 38.1526 66.6872 38.1526C68.1739 38.1526 68.2039 38.1876 67.7634 39.572C67.2228 41.2612 66.0265 42.3957 64.4698 43.1203C61.3815 44.5597 58.2831 44.5097 55.2348 42.9554C54.2187 42.4357 53.3828 41.686 52.7822 40.7065C52.3467 39.9968 51.7961 39.1222 52.1315 38.4025C52.4168 37.7878 53.4079 38.2826 53.7182 38.2126Z" fill="currentColor"/>
    <path d="M71.633 30.1612C70.9322 30.1912 70.0763 30.3062 69.5107 28.9768C68.9651 27.6824 66.8678 27.8973 66.2922 29.2516C65.9418 30.0763 65.4863 30.2512 64.7255 30.1662C64.4402 30.1362 64.1449 30.1612 63.8546 30.1612C61.7373 30.1612 61.6572 30.0463 62.413 28.0522C63.344 25.6083 65.7516 24.044 68.3595 24.184C70.9773 24.3239 73.1346 26.213 73.8404 28.8468C74.1157 29.8814 73.9405 30.3262 72.8093 30.1712C72.524 30.1312 72.2287 30.1662 71.628 30.1662L71.633 30.1612Z" fill="currentColor"/>
    <path d="M55.9559 30.1612C54.9598 30.1712 54.0839 30.3311 53.5233 28.9817C52.9877 27.6873 50.8804 27.8972 50.3048 29.2416C49.9544 30.0612 49.5089 30.2511 48.7431 30.1612C48.4578 30.1262 48.1625 30.1562 47.8722 30.1562C45.7449 30.1562 45.6698 30.0412 46.4206 28.0571C47.3616 25.5733 49.8593 23.984 52.4872 24.1839C55.105 24.3838 57.2223 26.2979 57.883 28.9517C58.1033 29.8463 58.0132 30.3111 56.957 30.1612C56.6317 30.1162 56.2913 30.1562 55.9609 30.1562L55.9559 30.1612Z" fill="currentColor"/>
  </g>
  <defs>
    <clipPath id="clip0_786_713">
      <rect width="120" height="120" fill="white"/>
    </clipPath>
  </defs>
</svg>
