<svg xmlns="http://www.w3.org/2000/svg" width="121" height="114" viewBox="0 0 121 114" fill="none">
  <g clip-path="url(#clip0_786_676)">
    <path d="M0.0444336 56.5016C0.0444336 38.5687 0.0444336 20.6405 0.0444336 2.71238C0.0444336 0.557597 0.598359 0 2.73895 0C29.8156 0 56.8922 0 83.9688 0C89.7945 0 93.8081 4.04967 93.8081 9.93751C93.8081 25.1155 93.8175 40.2935 93.7893 55.4714C93.7893 56.3976 93.9958 56.7567 94.9676 56.8513C106.032 57.8767 115.74 66.0233 118.885 76.8633C123.542 92.9202 113.726 109.317 97.4086 112.701C95.728 113.05 94.0193 113.244 92.2918 113.244C62.3658 113.244 32.435 113.244 2.50893 113.244C0.687551 113.244 0.0491279 112.597 0.0491279 110.768C0.0444336 92.6745 0.0444336 74.5904 0.0444336 56.5016ZM77.5658 109.303C77.134 109.015 76.7631 108.764 76.3876 108.514C66.8019 102.106 62.0419 90.2031 64.389 79.1646C66.9849 66.94 77.2373 57.8814 89.0903 56.8135C89.7757 56.752 90.0855 56.5583 90.0855 55.755C90.0573 43.7619 90.0573 31.7688 90.0808 19.7758C90.0808 19.0481 89.8837 18.8402 89.1607 18.8543C86.5413 18.8969 83.9266 18.8732 81.3072 18.8685C79.4295 18.8685 78.8145 18.2353 78.8098 16.3073C78.8098 13.5572 78.8098 10.8023 78.8098 8.05208C78.8098 5.26409 77.3217 3.77087 74.538 3.77087C51.367 3.77087 28.2008 3.78032 5.02976 3.74251C3.97824 3.74251 3.76231 4.02131 3.76231 5.042C3.79047 39.4098 3.79047 73.7776 3.76231 108.145C3.76231 109.194 3.99233 109.506 5.08609 109.502C28.8439 109.469 52.5969 109.478 76.3547 109.469C76.7209 109.469 77.1152 109.587 77.5658 109.303ZM89.1842 60.5512C84.781 61.0947 80.9504 62.6351 77.5142 65.1585C76.1247 66.1792 76.1341 66.1886 77.2373 67.4692C78.04 68.4001 78.0775 69.4539 77.3358 70.2194C76.5941 70.9849 75.5238 70.966 74.6038 70.1674C74.4582 70.0398 74.3033 69.9075 74.1907 69.7516C73.6602 69.0097 73.2753 69.0759 72.712 69.813C70.1723 73.1539 68.5622 76.8869 67.8393 81.0169C67.506 82.9307 67.5107 82.9307 69.3696 83.0536C70.4916 83.1292 71.2661 83.8616 71.2943 84.8823C71.3271 85.9408 70.5197 86.7441 69.3509 86.815C69.0786 86.8292 68.8016 86.8386 68.5294 86.815C67.8628 86.7536 67.5905 86.8717 67.6891 87.7034C68.1867 91.9279 69.6654 95.7555 72.1064 99.2097C72.4866 99.7437 72.7636 100.542 73.3879 100.665C73.9372 100.774 74.2423 99.9705 74.6929 99.6161C75.5896 98.912 76.6223 98.9262 77.3358 99.6681C78.0165 100.382 78.0353 101.374 77.3687 102.239C77.2513 102.395 77.1246 102.555 76.965 102.664C75.9792 103.363 76.2843 103.822 77.1293 104.45C80.3167 106.832 83.8327 108.42 87.7431 109.105C88.466 109.232 89.3063 109.511 89.8977 109.256C90.3343 109.067 89.9916 108.098 90.062 107.479C90.1841 106.449 90.9586 105.712 91.921 105.707C92.8786 105.707 93.6766 106.444 93.7846 107.47C93.8269 107.857 93.8269 108.259 93.794 108.646C93.7377 109.289 93.963 109.407 94.5967 109.332C98.7136 108.859 102.46 107.441 105.849 105.055C106.478 104.611 107.389 104.294 107.548 103.548C107.661 103.014 106.778 102.659 106.417 102.154C105.816 101.298 105.83 100.462 106.511 99.6823C107.159 98.9404 108.196 98.8978 109.05 99.5405C109.299 99.7295 109.543 99.9422 109.726 100.188C110.262 100.901 110.623 100.741 111.121 100.084C113.641 96.7809 115.247 93.0903 115.989 89.0029C116.35 87.004 116.373 87.0087 114.397 86.8197C113.313 86.7158 112.538 85.9077 112.562 84.8965C112.585 83.9278 113.327 83.1575 114.36 83.063C114.707 83.03 115.064 83.0252 115.411 83.063C116.087 83.1292 116.233 82.9118 116.153 82.203C115.679 78.0163 114.224 74.2218 111.825 70.7865C111.426 70.2147 111.116 69.383 110.482 69.2224C109.891 69.0759 109.6 69.9831 109.083 70.3186C108.985 70.3848 108.896 70.4651 108.797 70.5218C107.985 70.9707 107.201 70.9235 106.539 70.2667C105.84 69.572 105.774 68.7404 106.285 67.9087C106.487 67.5826 106.764 67.2755 107.065 67.0392C107.75 66.5005 107.652 66.1367 106.985 65.6263C103.76 63.1644 100.202 61.4869 96.2022 60.7922C95.5121 60.6741 94.7188 60.3386 94.1414 60.556C93.3762 60.8442 93.9067 61.7798 93.794 62.4178C93.6203 63.429 92.8551 64.1804 91.9022 64.1709C90.9446 64.1614 90.1606 63.4148 90.0573 62.3847C90.0292 62.1106 90.0245 61.8318 90.0527 61.5578C90.1324 60.7403 90.001 60.1921 89.1654 60.5512H89.1842ZM81.556 3.82285C82.7014 5.77444 82.57 7.82526 82.5606 9.85718C82.5559 11.2701 82.5887 12.6877 82.5465 14.1006C82.523 14.8141 82.6498 15.1543 83.4807 15.126C85.3912 15.0598 87.3065 15.0787 89.2171 15.1213C89.8743 15.1354 90.0996 14.9417 90.0808 14.266C90.0339 12.6546 90.0808 11.0433 90.062 9.43189C90.0245 6.62501 88.0482 4.23868 85.3067 3.8512C84.1332 3.68581 82.9173 3.82285 81.556 3.82285Z" fill="currentColor"/>
    <path d="M20.6759 30.2C23.0606 30.2 25.4406 30.1906 27.8253 30.2C29.3322 30.2095 30.041 30.9183 30.0457 32.4399C30.0551 37.2361 30.0551 42.0324 30.0457 46.824C30.0457 48.3408 29.3275 49.0544 27.8159 49.0591C23.0512 49.0685 18.2865 49.0685 13.5218 49.0591C12.015 49.0591 11.3061 48.3408 11.3061 46.8145C11.2967 42.0182 11.2967 37.222 11.3061 32.4304C11.3061 30.9088 12.015 30.2095 13.5312 30.2C15.9159 30.1858 18.2959 30.2 20.6806 30.2H20.6759ZM23.3094 34.0087C23.2202 33.9945 23.1451 33.9756 23.0653 33.9756C21.5021 33.9756 19.9389 33.9425 18.3804 33.9756C17.3007 33.9992 15.883 33.4936 15.2352 34.1883C14.5921 34.8687 15.0662 36.2816 15.0522 37.3732C15.024 39.0318 15.0428 40.6951 15.0428 42.3301C17.8453 39.5091 20.5632 36.7731 23.3141 34.0087H23.3094ZM26.2997 37.0566C23.5394 39.8304 20.8214 42.5569 18.094 45.2977C20.5726 45.2977 23.1357 45.2929 25.6988 45.3024C26.1541 45.3024 26.309 45.1323 26.309 44.6834C26.295 42.108 26.3044 39.5327 26.3044 37.0519L26.2997 37.0566Z" fill="currentColor"/>
    <path d="M20.6852 75.493C18.3005 75.493 15.9205 75.5024 13.5358 75.493C12.0148 75.4835 11.3013 74.7794 11.2966 73.272C11.2872 68.4758 11.2872 63.6795 11.2966 58.8879C11.2966 57.3569 11.996 56.6386 13.5029 56.6339C18.2676 56.6245 23.0323 56.6245 27.797 56.6339C29.3179 56.6339 30.0362 57.338 30.0362 58.8549C30.0456 63.6511 30.0456 68.4474 30.0362 73.239C30.0362 74.8031 29.3179 75.4883 27.7125 75.4977C25.3701 75.5072 23.0276 75.4977 20.6805 75.4977L20.6852 75.493ZM23.2999 60.3953C20.7603 60.3953 18.1925 60.3953 15.6294 60.3953C15.268 60.3953 15.0379 60.4757 15.0426 60.9104C15.052 63.5235 15.0426 66.1414 15.0426 68.7262C17.8076 65.9382 20.5256 63.1975 23.2999 60.4001V60.3953ZM26.2995 63.6984C23.6519 66.3493 20.9199 69.0853 18.2864 71.7221C20.549 71.7221 23.0464 71.7127 25.5437 71.7316C26.0648 71.7316 26.3183 71.6323 26.3136 71.0275C26.2854 68.4852 26.3042 65.9382 26.3042 63.6984H26.2995Z" fill="currentColor"/>
    <path d="M20.7886 83.0489C23.1311 83.0489 25.4735 83.0395 27.8207 83.0489C29.3322 83.0584 30.0411 83.7672 30.0411 85.2887C30.0504 90.085 30.0504 94.8813 30.0411 99.6728C30.0411 101.19 29.3228 101.903 27.816 101.908C23.0513 101.917 18.2866 101.917 13.5219 101.908C12.015 101.908 11.3062 101.19 11.3015 99.6681C11.2921 94.8718 11.2921 90.0756 11.3015 85.284C11.3015 83.7624 12.0103 83.0584 13.5266 83.0489C15.9488 83.0347 18.3711 83.0489 20.7933 83.0489H20.7886ZM20.5539 98.1465C22.1547 98.1465 23.7554 98.1229 25.3562 98.1607C26.0134 98.1749 26.3279 98.0757 26.3185 97.2818C26.2715 94.0591 26.2856 90.8364 26.3091 87.6184C26.3091 87.0182 26.1589 86.8009 25.5252 86.8056C22.2861 86.8339 19.0423 86.8339 15.8033 86.8056C15.1649 86.8009 15.024 87.0324 15.024 87.6231C15.0475 90.8458 15.0522 94.0685 15.024 97.2865C15.0193 97.9386 15.1836 98.1796 15.869 98.1607C17.4275 98.1135 18.9907 98.1465 20.5539 98.1465Z" fill="currentColor"/>
    <path d="M58.3005 30.2C65.6424 30.2 72.9889 30.2 80.3308 30.1953C81.1711 30.1953 81.8658 30.4174 82.3024 31.1923C82.6686 31.8397 82.6263 32.4776 82.2367 33.0872C81.7907 33.7866 81.1101 33.9803 80.3167 33.9756C76.9556 33.9614 73.5992 33.9709 70.2381 33.9709C58.8732 33.9709 47.5037 33.9709 36.1388 33.9756C35.261 33.9756 34.5146 33.8008 34.0499 32.9738C33.6837 32.3264 33.7259 31.6885 34.1156 31.0789C34.5897 30.3323 35.3267 30.1906 36.1529 30.1906C43.537 30.2047 50.9164 30.2 58.3005 30.2Z" fill="currentColor"/>
    <path d="M58.0707 41.5174C50.8462 41.5174 43.617 41.5174 36.3925 41.5174C36.078 41.5174 35.7588 41.5552 35.4583 41.4937C34.4632 41.2953 33.8294 40.681 33.8247 39.6414C33.82 38.6018 34.4444 37.9828 35.4396 37.7748C35.7024 37.7181 35.9841 37.7512 36.2564 37.7512C50.865 37.7512 65.4736 37.7512 80.0822 37.7512C80.3545 37.7512 80.6361 37.7181 80.899 37.7701C81.8989 37.9733 82.5279 38.5876 82.5326 39.6225C82.5373 40.6621 81.913 41.2858 80.9178 41.489C80.5798 41.5599 80.2183 41.5174 79.8663 41.5174C72.5995 41.5174 65.3375 41.5174 58.0707 41.5174Z" fill="currentColor"/>
    <path d="M51.6206 60.3907C46.424 60.3907 41.2321 60.3907 36.0355 60.3907C34.754 60.3907 33.9654 59.7858 33.8198 58.7462C33.6602 57.631 34.5334 56.667 35.7961 56.634C36.965 56.6009 38.1386 56.6245 39.3121 56.6245C48.5693 56.6245 57.8264 56.6245 67.0835 56.6245C68.9331 56.6245 69.9564 57.9901 69.1819 59.3983C68.7218 60.23 67.9661 60.4001 67.0929 60.4001C61.9386 60.3859 56.7796 60.3954 51.6253 60.3954L51.6206 60.3907Z" fill="currentColor"/>
    <path d="M28.2901 18.8732C33.1346 18.8732 37.9744 18.8685 42.8189 18.8732C44.1473 18.8732 44.9641 19.5442 45.0393 20.6358C45.1144 21.7179 44.2647 22.6016 43.0489 22.6299C41.4106 22.663 39.7676 22.6394 38.1293 22.6394C29.9659 22.6394 21.8025 22.6394 13.6392 22.6394C11.7896 22.6394 10.7663 21.2643 11.5502 19.8608C12.0103 19.0292 12.7707 18.8638 13.6439 18.8685C18.5259 18.8827 23.408 18.8732 28.2901 18.878V18.8732Z" fill="currentColor"/>
    <path d="M48.9215 45.2977C53.1417 45.2977 57.3571 45.2929 61.5773 45.2977C62.9058 45.2977 63.7226 45.9687 63.7977 47.0602C63.8728 48.1849 62.995 49.0449 61.6899 49.0543C58.7607 49.0732 55.8315 49.0591 52.9022 49.0591C47.2785 49.0591 41.6547 49.0591 36.031 49.0591C34.7072 49.0591 33.8857 48.3833 33.8106 47.2918C33.7308 46.1246 34.6274 45.3024 36.0357 45.2977C40.3309 45.2882 44.6262 45.2977 48.9262 45.2977H48.9215Z" fill="currentColor"/>
    <path d="M46.9309 67.9417C43.3398 67.9417 39.7439 67.9417 36.1528 67.9417C34.6788 67.9417 33.8104 67.2329 33.8057 66.061C33.8057 64.8891 34.6694 64.1755 36.1434 64.1755C43.3304 64.1755 50.5173 64.1755 57.6996 64.1755C59.1783 64.1755 60.042 64.8796 60.0467 66.0515C60.0467 67.2234 59.1783 67.937 57.709 67.937C54.1178 67.9417 50.522 67.937 46.9309 67.937V67.9417Z" fill="currentColor"/>
    <path d="M22.5443 11.3267C25.5111 11.3267 28.4779 11.3267 31.4494 11.3267C32.9234 11.3267 33.7918 12.0355 33.7918 13.2074C33.7918 14.3793 32.9234 15.0881 31.4494 15.0928C25.5158 15.0928 19.5775 15.0928 13.644 15.0928C12.17 15.0928 11.3015 14.384 11.3015 13.2121C11.3015 12.0402 12.1653 11.3314 13.644 11.3314C16.6107 11.3267 19.5775 11.3314 22.549 11.3314L22.5443 11.3267Z" fill="currentColor"/>
    <path d="M45.1705 83.0489C48.0998 83.0489 51.029 83.0489 53.9582 83.0489C55.4323 83.0489 56.3007 83.7624 56.296 84.9343C56.296 86.1062 55.4229 86.815 53.9489 86.815C48.0153 86.815 42.077 86.815 36.1434 86.815C34.6694 86.815 33.801 86.1015 33.8057 84.9296C33.8057 83.7577 34.6741 83.0536 36.1481 83.0536C39.1572 83.0489 42.1615 83.0536 45.1705 83.0536V83.0489Z" fill="currentColor"/>
    <path d="M45.0532 94.3661C42.0864 94.3661 39.1196 94.3661 36.1481 94.3661C34.6741 94.3661 33.8057 93.6573 33.8057 92.4854C33.8057 91.3135 34.6694 90.6047 36.1434 90.6047C42.077 90.6047 48.0153 90.6047 53.9488 90.6047C55.4228 90.6047 56.2913 91.3135 56.2913 92.4854C56.2913 93.6573 55.4228 94.3662 53.9488 94.3709C50.9821 94.3756 48.0153 94.3709 45.0438 94.3709L45.0532 94.3661Z" fill="currentColor"/>
    <path d="M43.1615 75.4929C40.7814 75.4929 38.3968 75.5023 36.0167 75.4929C34.646 75.4834 33.7964 74.7415 33.8057 73.598C33.8151 72.4592 34.6648 71.7362 36.0449 71.7315C40.8096 71.722 45.5743 71.722 50.3343 71.7315C51.7004 71.7315 52.5547 72.4875 52.5453 73.6263C52.5359 74.7604 51.6816 75.4881 50.3062 75.4929C47.9262 75.5023 45.5415 75.4929 43.1615 75.4929Z" fill="currentColor"/>
    <path d="M40.3636 101.917C38.8802 101.917 37.3968 101.932 35.9134 101.913C34.6319 101.894 33.8057 101.138 33.8057 100.032C33.8057 98.9262 34.6272 98.1607 35.9087 98.1513C38.8755 98.1324 41.8423 98.1324 44.8091 98.1513C46.0859 98.1607 46.9168 98.9262 46.9168 100.027C46.9168 101.128 46.0859 101.889 44.8091 101.908C43.3257 101.927 41.8423 101.913 40.3589 101.913L40.3636 101.917Z" fill="currentColor"/>
    <path d="M99.4039 86.8149C97.099 86.8149 94.7988 86.8149 92.4939 86.8149C90.7383 86.8149 90.067 86.1581 90.067 84.4286C90.0623 80.9743 90.0623 77.5153 90.067 74.0611C90.067 72.5868 90.7899 71.7126 91.9541 71.7267C93.1183 71.7409 93.8036 72.6104 93.8036 74.0989C93.8083 76.575 93.8647 79.0511 93.7802 81.5225C93.7379 82.6991 93.9867 83.1149 95.2636 83.0819C98.9674 82.9826 102.676 83.0441 106.384 83.0488C107.938 83.0488 108.83 83.7671 108.802 84.972C108.774 86.1392 107.91 86.8149 106.422 86.8149C104.079 86.8197 101.737 86.8149 99.3945 86.8149H99.4039Z" fill="currentColor"/>
  </g>
  <defs>
    <clipPath id="clip0_786_676">
      <rect width="120" height="113.239" fill="white" transform="translate(0.0444336)"/>
    </clipPath>
  </defs>
</svg>
