<svg xmlns="http://www.w3.org/2000/svg" width="135" height="85" viewBox="0 0 135 85" fill="none">
  <g clip-path="url(#clip0_797_2573)">
    <path d="M2.03223 2.93457H10.5983C21.1452 2.93457 26.7788 9.03542 26.7788 19.9243C26.7788 30.8131 21.1452 37.2229 10.8041 37.2229H2.03223V2.93457ZM10.2897 33.6447C18.2898 33.6447 22.3028 28.5736 22.3028 19.8985C22.3028 11.2235 18.2641 6.48696 10.2639 6.48696H6.35387V33.6447H10.2639H10.2897Z" fill="#353D47"/>
    <path d="M32.2324 11.8156H35.7823L36.1425 16.4234H36.2968C38.0203 13.2314 40.6185 11.1978 43.4996 11.1978C44.6057 11.1978 45.3774 11.3522 46.2263 11.7126L45.3774 15.4709C44.5543 15.2135 43.9626 15.0591 42.9336 15.0591C40.7985 15.0591 38.2261 16.6293 36.5026 20.9025V37.1971H32.2324V11.8156Z" fill="#353D47"/>
    <path d="M49.313 11.8156H53.6346V27.338C53.6346 32.1002 55.0495 34.1338 58.3936 34.1338C61.0174 34.1338 62.7667 32.821 65.1847 29.8607V11.8413H69.5321V37.2229H65.9822L65.6221 33.2586H65.4677C63.1268 36.0387 60.5544 37.8664 57.1074 37.8664C51.7311 37.8664 49.3387 34.417 49.3387 27.93V11.8413L49.313 11.8156Z" fill="#353D47"/>
    <path d="M80.3879 39.3337V47.9058H76.1177V11.8156H79.6676L80.0277 14.7501H80.1821C82.4715 12.8195 85.3012 11.1978 88.2852 11.1978C94.8191 11.1978 98.3176 16.2689 98.3176 24.146C98.3176 32.7695 93.147 37.8407 87.3591 37.8407C85.0182 37.8407 82.6516 36.7338 80.3107 34.9061L80.4136 39.3595L80.3879 39.3337ZM86.6131 34.2111C90.7804 34.2111 93.8673 30.4013 93.8673 24.1202C93.8673 18.5342 91.9894 14.7759 87.179 14.7759C85.0439 14.7759 82.9088 15.9858 80.3879 18.2253V31.5597C82.6773 33.4903 84.9153 34.2111 86.6131 34.2111Z" fill="#353D47"/>
    <path d="M117.456 21.1084C117.456 17.8649 116.35 14.7244 112.234 14.7244C109.25 14.7244 106.652 16.0887 104.671 17.453L102.948 14.467C105.289 12.9482 108.839 11.172 112.929 11.172C119.128 11.172 121.752 15.2907 121.752 21.6232V37.1971H118.202L117.842 34.1596H117.739C115.295 36.1417 112.466 37.8149 109.327 37.8149C105.057 37.8149 101.867 35.1378 101.867 30.6072C101.867 25.0727 106.678 22.2925 117.482 21.1084H117.456ZM110.511 34.3913C112.955 34.3913 115.012 33.1814 117.456 30.9933V23.94C108.942 24.9954 106.086 27.0805 106.086 30.324C106.086 33.2071 108.015 34.3913 110.536 34.3913H110.511Z" fill="#353D47"/>
    <path d="M128.003 0H132.273V32.3834C132.273 33.7477 132.839 34.2626 133.482 34.2626C133.74 34.2626 133.945 34.2626 134.434 34.1596L135 37.4031C134.434 37.6605 133.688 37.815 132.531 37.815C129.289 37.815 128.003 35.7813 128.003 32.0745V0Z" fill="#353D47"/>
    <path d="M58.548 43.8644C64.0529 43.8644 67.8858 46.3613 70.3811 48.9098L66.4967 53.2859C64.4902 51.3553 62.3037 50.0167 58.6252 50.0167C51.6025 50.0167 46.8692 55.474 46.8692 64.3807C46.8692 73.2875 51.1137 78.8735 59.0625 78.8735C61.249 78.8735 63.4356 78.2557 64.696 77.123V68.5767H57.2361V62.8105H70.9984V80.2893C68.2717 82.8377 63.6156 85.0258 58.2136 85.0258C47.6667 85.0258 39.6665 77.7408 39.6665 64.5867C39.6665 51.4325 47.8982 43.9159 58.5737 43.9159L58.548 43.8644Z" fill="#353D47"/>
    <path d="M89.9829 53.7493C97.4429 53.7493 104.157 59.464 104.157 69.4004C104.157 79.3368 97.4171 85 89.9829 85C82.5486 85 75.8604 79.311 75.8604 69.4004C75.8604 59.4897 82.6001 53.7493 89.9829 53.7493ZM89.9829 79.2853C94.356 79.2853 97.0055 75.3468 97.0055 69.4004C97.0055 63.454 94.3302 59.464 89.9829 59.464C85.6355 59.464 83.0116 63.4025 83.0116 69.4004C83.0116 75.3983 85.6098 79.2853 89.9829 79.2853Z" fill="#353D47"/>
    <path d="M104.903 54.4701H112.003L116.736 69.941C117.533 72.8499 118.434 75.8874 119.231 78.925H119.463C120.312 75.8874 121.16 72.8499 122.009 69.941L126.743 54.4701H133.482L123.347 84.2536H115.295L104.929 54.4701H104.903Z" fill="#353D47"/>
    <path d="M20.0905 48.7552L16.4891 45.1514L4.83613 56.8125C1.85213 59.7985 0 63.9173 0 68.4736C0 68.8597 0 69.2201 0.0514482 69.5805L20.1162 48.7552H20.0905Z" fill="#353D47"/>
    <path d="M17.3123 68.4993V60.8025L10.4182 68.4993H17.3123Z" fill="#353D47"/>
    <path d="M23.9492 68.4994H32.9784C32.9784 63.9431 31.1262 59.8243 28.1422 56.8383L23.9492 52.6423V68.4994Z" fill="#353D47"/>
    <path d="M17.3124 75.115H1.38916C2.21233 77.0199 3.39564 78.7189 4.83619 80.1604C7.82018 83.1465 11.936 84.9999 16.4892 84.9999C16.7722 84.9999 17.0294 84.9999 17.3124 84.9999V75.1407V75.115Z" fill="#353D47"/>
    <path d="M23.9492 75.115V83.198C25.5184 82.4 26.9075 81.3703 28.1422 80.1604C29.5828 78.7189 30.7661 76.9942 31.5893 75.115H23.9492Z" fill="#353D47"/>
  </g>
  <defs>
    <clipPath id="clip0_797_2573">
      <rect width="135" height="85" fill="white"/>
    </clipPath>
  </defs>
</svg>
