<svg xmlns="http://www.w3.org/2000/svg" width="21" height="21" viewBox="0 0 21 21" fill="none">
<path d="M18.5279 0.739066C18.9155 0.735787 19.2888 0.885828 19.5663 1.15651C19.8439 1.42719 20.0032 1.79657 20.0097 2.18421V19.3035C20.0029 19.6911 19.8435 20.0603 19.566 20.3309C19.2885 20.6015 18.9154 20.7517 18.5279 20.7487H1.47633C1.08944 20.7511 0.717264 20.6006 0.44079 20.3299C0.164315 20.0593 0.00591569 19.6904 6.10352e-05 19.3035V2.18421C0.00591569 1.79736 0.164315 1.42847 0.44079 1.15783C0.717264 0.887181 1.08944 0.736677 1.47633 0.739066H18.5279ZM13.0808 7.5201C12.5118 7.49912 11.9477 7.63275 11.4485 7.90679C10.9494 8.18083 10.5338 8.58503 10.2461 9.07641H10.2061V7.76022H7.33692V17.4137H10.3295V12.6337C10.3295 11.3742 10.5674 10.1547 12.1259 10.1547C13.6622 10.1547 13.6822 11.5998 13.6822 12.7115V17.4137H16.6747V12.1179C16.6747 9.52106 16.1189 7.5201 13.083 7.5201H13.0808ZM5.4549 7.76022H2.45346V17.4137H5.4549V7.76022ZM3.95863 2.96236C3.50499 2.97383 3.07378 3.16209 2.75698 3.487C2.44019 3.81191 2.26288 4.24774 2.26288 4.70153C2.26288 5.15531 2.44019 5.59114 2.75698 5.91605C3.07378 6.24096 3.50499 6.42922 3.95863 6.44069L4.11315 6.43403C4.54407 6.39217 4.9441 6.19184 5.23574 5.87186C5.52738 5.55187 5.68986 5.13502 5.69168 4.70208L5.68502 4.54423C5.64405 4.11385 5.44501 3.71393 5.12635 3.42176C4.8077 3.12959 4.39094 2.96591 3.95863 2.96236Z" fill="currentColor"/>
</svg>
