<svg xmlns="http://www.w3.org/2000/svg" width="26" height="26" viewBox="0 0 26 26" fill="none">
<path d="M7.42842 21.0811C8.68317 21.0811 9.70034 20.0639 9.70034 18.8092C9.70034 17.5544 8.68317 16.5373 7.42842 16.5373C6.17367 16.5373 5.15649 17.5544 5.15649 18.8092C5.15649 20.0639 6.17367 21.0811 7.42842 21.0811Z" fill="currentColor"/>
<path d="M5.15649 4.86499V7.81432C8.67498 7.8146 12.0493 9.21244 14.5372 11.7004C17.0252 14.1883 18.423 17.5626 18.4233 21.0811H21.3726C21.3712 16.7808 19.6623 12.6569 16.6215 9.61611C13.5807 6.57529 9.45685 4.86637 5.15649 4.86499ZM5.15649 10.7637V13.713C7.11013 13.7146 8.98328 14.4915 10.3647 15.8729C11.7461 17.2543 12.523 19.1275 12.5246 21.0811H15.474C15.474 18.3448 14.3869 15.7205 12.452 13.7856C10.5171 11.8507 7.89285 10.7637 5.15649 10.7637Z" fill="currentColor"/>
</svg>
