<svg xmlns="http://www.w3.org/2000/svg" width="21" height="17" viewBox="0 0 21 17" fill="none">
<path fill-rule="evenodd" clip-rule="evenodd" d="M18.5833 4.66684V5.19409C18.5947 6.72757 18.3011 8.24802 17.7196 9.66701C17.1381 11.086 16.2802 12.3752 15.1959 13.4596C14.1116 14.544 12.8224 15.402 11.4035 15.9836C9.98458 16.5653 8.46415 16.859 6.93067 16.8477C4.70739 16.8573 2.52941 16.2194 0.662659 15.0118C0.99093 15.0288 1.31986 15.0288 1.64813 15.0118C3.49019 15.0381 5.28664 14.4385 6.74358 13.311C5.89417 13.2873 5.07317 12.9999 4.39445 12.4886C3.71574 11.9773 3.21293 11.2675 2.95576 10.4576C3.2114 10.5199 3.47408 10.5485 3.73714 10.5427C4.09817 10.5409 4.45766 10.4952 4.80765 10.4066C3.89417 10.2018 3.07795 9.69131 2.49397 8.95961C1.91 8.22792 1.59325 7.31882 1.59611 6.38266C2.16217 6.70215 2.79818 6.87739 3.448 6.8929C2.56025 6.31928 1.92635 5.42698 1.67693 4.39989C1.42751 3.37279 1.58157 2.28914 2.10735 1.37225C3.13881 2.64832 4.42886 3.69144 5.89256 4.43295C7.35626 5.17446 8.96042 5.59753 10.5994 5.67432C10.5264 5.36799 10.4865 5.05472 10.4804 4.73987C10.4796 4.20174 10.5849 3.66873 10.7903 3.17133C10.9957 2.67394 11.2971 2.22191 11.6773 1.84112C12.0576 1.46032 12.5092 1.15823 13.0063 0.952109C13.5034 0.745993 14.0362 0.639901 14.5743 0.639901C15.1377 0.633599 15.6962 0.745159 16.214 0.967419C16.7317 1.18968 17.1973 1.51773 17.5808 1.93052C18.4759 1.74534 19.3322 1.40687 20.112 0.930041C19.812 1.88408 19.1708 2.69406 18.3111 3.20513C19.1285 3.11079 19.9256 2.88653 20.6723 2.54081C20.1064 3.36602 19.3992 4.08474 18.5833 4.66383V4.66684Z" fill="currentColor"/>
</svg>
