<svg xmlns="http://www.w3.org/2000/svg" width="21" height="15" viewBox="0 0 21 15" fill="none">
<path d="M18.1492 1.12808C18.5718 1.2372 18.9579 1.45632 19.2682 1.76314C19.5785 2.06995 19.802 2.45351 19.9159 2.87477C20.207 4.47305 20.347 6.09518 20.3341 7.7197C20.3444 9.32782 20.2047 10.9334 19.9169 12.5156C19.8116 12.9469 19.5918 13.3417 19.2809 13.6586C18.97 13.9755 18.5794 14.2027 18.1502 14.3163C15.556 14.6335 12.9435 14.7765 10.3301 14.7445C7.71711 14.7764 5.10488 14.6331 2.51104 14.3153C2.0885 14.2062 1.70242 13.9871 1.39209 13.6803C1.08176 13.3734 0.858261 12.9899 0.744334 12.5686C0.452993 10.969 0.312986 9.34555 0.326168 7.7197C0.315863 6.1119 0.455523 4.50665 0.743334 2.92479C0.848718 2.49353 1.06843 2.09867 1.37935 1.78177C1.69026 1.46487 2.08086 1.23767 2.51004 1.12408C5.10548 0.825057 7.71799 0.699728 10.3301 0.748931C12.9421 0.700398 15.5543 0.827065 18.1492 1.12808ZM8.27933 4.78653V10.6529L13.5144 7.7197L8.27933 4.78653Z" fill="currentColor"/>
</svg>
