<svg width="211px" height="39px" viewBox="0 0 211 39" version="1.1" xmlns="http://www.w3.org/2000/svg" xmlns:xlink="http://www.w3.org/1999/xlink">
    <title>Group 2</title>
    <g id="Page-1" stroke="none" stroke-width="1" fill="none" fill-rule="evenodd">
        <g id="Group-2" transform="translate(0.782076, 0.000000)" fill-rule="nonzero">
            <g id="Drupal" transform="translate(0.000000, 2.931148)" fill="#0063DE">
                <path d="M0,27.068852 L0,0.751912 L8.083064,0.751912 C12.719824,0.751912 16.128524,1.929912 18.309024,4.285902 C20.514724,6.641892 21.617524,9.875152 21.617524,13.985552 C21.617524,18.020852 20.514724,21.216452 18.309024,23.572452 C16.128524,25.903352 12.719824,27.068852 8.083064,27.068852 L0,27.068852 Z M3.158034,24.437152 L8.007864,24.437152 C10.564324,24.437152 12.594524,24.023652 14.098324,23.196552 C15.627224,22.344352 16.717524,21.141252 17.369224,19.587352 C18.020824,18.008352 18.346624,16.141052 18.346624,13.985552 C18.346624,11.779952 18.020824,9.887652 17.369224,8.308632 C16.717524,6.729612 15.627224,5.514022 14.098324,4.661862 C12.594524,3.809692 10.564324,3.383602 8.007864,3.383602 L3.158034,3.383602 L3.158034,24.437152 Z M25.049524,27.068852 L25.049524,8.421422 L27.906824,8.421422 L28.170024,11.993052 C28.746424,10.764852 29.623724,9.787352 30.801724,9.060542 C31.979724,8.333702 33.433424,7.970272 35.162824,7.970272 L35.162824,11.278652 L34.298124,11.278652 C33.195324,11.278652 32.180224,11.479152 31.252824,11.880252 C30.325524,12.256152 29.586124,12.907852 29.034724,13.835152 C28.483324,14.762552 28.207624,16.040752 28.207624,17.669952 L28.207624,27.068852 L25.049524,27.068852 Z M44.572224,27.519952 C42.366624,27.519952 40.612224,26.855852 39.308824,25.527452 C38.005524,24.173952 37.353924,22.106252 37.353924,19.324152 L37.353924,8.421422 L40.511924,8.421422 L40.511924,18.985752 C40.511924,22.870652 42.103524,24.813152 45.286624,24.813152 C46.915724,24.813152 48.256624,24.236652 49.309324,23.083752 C50.387024,21.905752 50.925924,20.238952 50.925924,18.083452 L50.925924,8.421422 L54.083924,8.421422 L54.083924,27.068852 L51.226724,27.068852 L51.001124,23.722852 C50.424624,24.900852 49.559924,25.828152 48.407024,26.504952 C47.279124,27.181652 46.000924,27.519952 44.572224,27.519952 Z M58.342224,35.339852 L58.342224,8.421422 L61.199524,8.421422 L61.500324,11.504252 C62.101824,10.601952 62.954024,9.787352 64.056824,9.060542 C65.184624,8.333702 66.613324,7.970272 68.342724,7.970272 C70.197424,7.970272 71.814024,8.396352 73.192524,9.248552 C74.571024,10.100652 75.636224,11.266152 76.388124,12.744952 C77.165124,14.223652 77.553624,15.902952 77.553624,17.782752 C77.553624,19.662552 77.165124,21.341752 76.388124,22.820552 C75.636224,24.274252 74.558524,25.427152 73.154924,26.279352 C71.776424,27.106452 70.159824,27.519952 68.305124,27.519952 C66.776224,27.519952 65.410224,27.206752 64.207124,26.580152 C63.029124,25.953552 62.126824,25.076252 61.500324,23.948452 L61.500324,35.339852 L58.342224,35.339852 Z M67.966724,24.775552 C69.219924,24.775552 70.322724,24.487252 71.275124,23.910852 C72.227524,23.309252 72.979524,22.482152 73.530924,21.429552 C74.082324,20.376852 74.358024,19.148752 74.358024,17.745152 C74.358024,16.341552 74.082324,15.113452 73.530924,14.060752 C72.979524,13.008052 72.227524,12.193552 71.275124,11.617052 C70.322724,11.015552 69.219924,10.714752 67.966724,10.714752 C66.713524,10.714752 65.610724,11.015552 64.658324,11.617052 C63.705924,12.193552 62.954024,13.008052 62.402524,14.060752 C61.851124,15.113452 61.575424,16.341552 61.575424,17.745152 C61.575424,19.148752 61.851124,20.376852 62.402524,21.429552 C62.954024,22.482152 63.705924,23.309252 64.658324,23.910852 C65.610724,24.487252 66.713524,24.775552 67.966724,24.775552 Z M87.213024,27.519952 C85.659124,27.519952 84.368324,27.256852 83.340724,26.730452 C82.313124,26.204152 81.548624,25.502352 81.047324,24.625152 C80.546124,23.747952 80.295424,22.795452 80.295424,21.767852 C80.295424,19.863052 81.022324,18.396752 82.476024,17.369152 C83.929724,16.341552 85.909724,15.827752 88.416124,15.827752 L93.453924,15.827752 L93.453924,15.602152 C93.453924,13.973052 93.027824,12.744952 92.175624,11.917852 C91.323524,11.065652 90.183124,10.639552 88.754424,10.639552 C87.526324,10.639552 86.461124,10.952852 85.558824,11.579452 C84.681624,12.180952 84.130224,13.070752 83.904624,14.248752 L80.671424,14.248752 C80.796724,12.895252 81.247824,11.754852 82.024824,10.827552 C82.826924,9.900152 83.816924,9.198352 84.994924,8.722182 C86.172924,8.220912 87.426124,7.970272 88.754424,7.970272 C91.361124,7.970272 93.316024,8.672062 94.619424,10.075652 C95.947724,11.454152 96.611924,13.296352 96.611924,15.602152 L96.611924,27.068852 L93.792324,27.068852 L93.604324,23.722852 C93.077924,24.775552 92.301024,25.677852 91.273324,26.429752 C90.270824,27.156552 88.917424,27.519952 87.213024,27.519952 Z M87.701824,24.850752 C88.904824,24.850752 89.932424,24.537452 90.784624,23.910852 C91.661824,23.284252 92.326024,22.469652 92.777224,21.467152 C93.228324,20.464552 93.453924,19.411852 93.453924,18.309052 L93.453924,18.271452 L88.679224,18.271452 C86.824524,18.271452 85.508724,18.597352 84.731724,19.248952 C83.979824,19.875552 83.603824,20.665052 83.603824,21.617452 C83.603824,22.594952 83.954724,23.384452 84.656524,23.986052 C85.383424,24.562452 86.398424,24.850752 87.701824,24.850752 Z M100.409924,27.068852 L100.409924,0 L103.567924,0 L103.567924,27.068852 L100.409924,27.068852 Z" id="Shape"></path>
            </g>
            <g id="Gov" transform="translate(141.909727, 3.231913)" fill="#0048A2">
                <path d="M12.368997,27.219187 C9.887697,27.219187 7.719637,26.655287 5.864917,25.527387 C4.010197,24.399587 2.569037,22.833087 1.541417,20.827987 C0.513807,18.797787 -2.22044605e-16,16.441787 -2.22044605e-16,13.759987 C-2.22044605e-16,11.053087 0.526337,8.672057 1.579017,6.616827 C2.656757,4.536537 4.173117,2.919927 6.128087,1.766997 C8.108127,0.588998 10.451597,-4.71844785e-16 13.158497,-4.71844785e-16 C16.241297,-4.71844785e-16 18.797797,0.73938 20.827997,2.218137 C22.858097,3.696907 24.173997,5.739597 24.775497,8.346227 L19.399297,8.346227 C18.998297,7.118107 18.271497,6.165687 17.218797,5.488957 C16.166097,4.787177 14.812697,4.436287 13.158497,4.436287 C10.526797,4.436287 8.496617,5.275917 7.067977,6.955187 C5.639347,8.609397 4.925027,10.890187 4.925027,13.797587 C4.925027,16.704987 5.626817,18.960687 7.030387,20.564787 C8.459017,22.143787 10.388897,22.933287 12.820097,22.933287 C15.201197,22.933287 16.993197,22.294187 18.196297,21.015987 C19.424397,19.712687 20.163797,18.008287 20.414397,15.902987 L13.759997,15.902987 L13.759997,12.293787 L25.264297,12.293787 L25.264297,26.768087 L20.827997,26.768087 L20.451997,23.309287 C19.599897,24.562487 18.534597,25.527387 17.256397,26.204187 C15.978097,26.880887 14.348997,27.219187 12.368997,27.219187 Z M37.837697,27.219187 C36.033097,27.219187 34.403897,26.805687 32.950197,25.978587 C31.521597,25.151487 30.381197,24.011087 29.528997,22.557387 C28.701897,21.078587 28.288397,19.374287 28.288397,17.444387 C28.288397,15.514487 28.714397,13.822687 29.566597,12.368987 C30.418797,10.890187 31.559197,9.737267 32.987797,8.910167 C34.441497,8.083057 36.070697,7.669507 37.875197,7.669507 C39.654797,7.669507 41.258897,8.083057 42.687497,8.910167 C44.141197,9.737267 45.281597,10.890187 46.108697,12.368987 C46.960897,13.822687 47.386897,15.514487 47.386897,17.444387 C47.386897,19.374287 46.960897,21.078587 46.108697,22.557387 C45.281597,24.011087 44.141197,25.151487 42.687497,25.978587 C41.233797,26.805687 39.617197,27.219187 37.837697,27.219187 Z M37.837697,23.046087 C39.090797,23.046087 40.181097,22.582487 41.108497,21.655087 C42.035797,20.702687 42.499497,19.299087 42.499497,17.444387 C42.499497,15.589687 42.035797,14.198587 41.108497,13.271287 C40.181097,12.318787 39.103397,11.842587 37.875197,11.842587 C36.596997,11.842587 35.494197,12.318787 34.566797,13.271287 C33.664497,14.198587 33.213397,15.589687 33.213397,17.444387 C33.213397,19.299087 33.664497,20.702687 34.566797,21.655087 C35.494197,22.582487 36.584497,23.046087 37.837697,23.046087 Z M54.869597,26.768087 L48.027197,8.120657 L53.065097,8.120657 L57.802097,22.218987 L62.539197,8.120657 L67.576997,8.120657 L60.696997,26.768087 L54.869597,26.768087 Z" id="Shape"></path>
            </g>
            <g id="Group" transform="translate(109.217924, 0.000000)">
                <path d="M16.36,2.95 L13.42,0 L3.93,9.49 C1.5,11.92 0,15.28 0,18.98 C0,19.29 0.0199988,19.59 0.0299988,19.89 L16.36,2.94 L16.36,2.95 Z" id="Path" fill="#7AC1FF"></path>
                <polygon id="Path" fill="#0063DE" points="14.09 19 14.09 12.74 8.47998 19"></polygon>
                <path d="M19.5,19.0001 L26.84,19.0001 C26.84,15.2901 25.34,11.9401 22.91,9.5101 L19.5,6.1001 L19.5,19.0001 Z" id="Path" fill="#0063DE"></path>
                <path d="M14.09,24.3799 L1.12,24.3799 C1.8,25.9199 2.75,27.3199 3.92,28.4899 C6.35,30.9199 9.7,32.4299 13.41,32.4299 C13.63,32.4299 13.86,32.4299 14.08,32.4099 L14.08,24.3799 L14.09,24.3799 Z" id="Path" fill="#0063DE"></path>
                <path d="M19.5,24.3799 L19.5,30.9599 C20.76,30.3199 21.91,29.4799 22.91,28.4899 C24.08,27.3099 25.04,25.9199 25.71,24.3799 L19.49,24.3799 L19.5,24.3799 Z" id="Path" fill="#0063DE"></path>
            </g>
        </g>
    </g>
</svg>
